<?xml version="1.0" standalone="no"?>
 <!DOCTYPE svg PUBLIC "-//W3C//DTD SVG 1.1//EN" 
 "http://www.w3.org/Graphics/SVG/1.1/DTD/svg11.dtd"> 
<svg xmlns="http://www.w3.org/2000/svg" version="1.1" 
    width="29.7002cm" height="21.0007cm" viewBox="0 0 116930 82680 ">
<title>SVG Picture created as PoELLi_PI-brd.svg date 2015/02/10 19:43:21 </title>
  <desc>Picture generated by PCBNEW </desc>
<g style="fill:#000000; fill-opacity:1;stroke:#000000; stroke-opacity:1;
stroke-linecap:round; stroke-linejoin:round; "
 transform="translate(0 0) scale(1 1)">
</g>
<g style="fill:#000000; fill-opacity:0.0; 
stroke:#000000; stroke-width:39.3701; stroke-opacity:1; 
stroke-linecap:round; stroke-linejoin:round;">
</g>
<g style="fill:#000000; fill-opacity:0.0; 
stroke:#000000; stroke-width:59.0551; stroke-opacity:1; 
stroke-linecap:round; stroke-linejoin:round;">
<rect x="69685.9" y="65357.2" width="42519.7" height="12598.4" rx="0" />
</g>
<g style="fill:#000000; fill-opacity:0.0; 
stroke:#000000; stroke-width:39.3701; stroke-opacity:1; 
stroke-linecap:round; stroke-linejoin:round;">
</g>
<g style="fill:#000000; fill-opacity:0.0; 
stroke:#000000; stroke-width:59.0551; stroke-opacity:1; 
stroke-linecap:round; stroke-linejoin:round;">
<rect x="3937.01" y="3937.01" width="109056" height="74806" rx="0" />
</g>
<g style="fill:#000000; fill-opacity:0.0; 
stroke:#000000; stroke-width:39.3701; stroke-opacity:1; 
stroke-linecap:round; stroke-linejoin:round;">
</g>
<g style="fill:#000000; fill-opacity:0.0; 
stroke:#000000; stroke-width:59.0551; stroke-opacity:1; 
stroke-linecap:round; stroke-linejoin:round;">
<rect x="4724.41" y="4724.41" width="107481" height="73231.2" rx="0" />
</g>
<g style="fill:#000000; fill-opacity:0.0; 
stroke:#000000; stroke-width:39.3701; stroke-opacity:1; 
stroke-linecap:round; stroke-linejoin:round;">
</g>
<g style="fill:#000000; fill-opacity:0.0; 
stroke:#000000; stroke-width:59.0551; stroke-opacity:1; 
stroke-linecap:round; stroke-linejoin:round;">
<path d="M23622 4724
L23622 3937
" />
</g>
<g style="fill:#000000; fill-opacity:0.0; 
stroke:#000000; stroke-width:39.3701; stroke-opacity:1; 
stroke-linecap:round; stroke-linejoin:round;">
</g>
<g style="fill:#000000; fill-opacity:0.0; 
stroke:#000000; stroke-width:59.0551; stroke-opacity:1; 
stroke-linecap:round; stroke-linejoin:round;">
<path d="M43307 4724
L43307 3937
" />
</g>
<g style="fill:#000000; fill-opacity:0.0; 
stroke:#000000; stroke-width:39.3701; stroke-opacity:1; 
stroke-linecap:round; stroke-linejoin:round;">
</g>
<g style="fill:#000000; fill-opacity:0.0; 
stroke:#000000; stroke-width:59.0551; stroke-opacity:1; 
stroke-linecap:round; stroke-linejoin:round;">
<path d="M62992 4724
L62992 3937
" />
</g>
<g style="fill:#000000; fill-opacity:0.0; 
stroke:#000000; stroke-width:39.3701; stroke-opacity:1; 
stroke-linecap:round; stroke-linejoin:round;">
</g>
<g style="fill:#000000; fill-opacity:0.0; 
stroke:#000000; stroke-width:59.0551; stroke-opacity:1; 
stroke-linecap:round; stroke-linejoin:round;">
<path d="M82677 4724
L82677 3937
" />
</g>
<g style="fill:#000000; fill-opacity:0.0; 
stroke:#000000; stroke-width:39.3701; stroke-opacity:1; 
stroke-linecap:round; stroke-linejoin:round;">
</g>
<g style="fill:#000000; fill-opacity:0.0; 
stroke:#000000; stroke-width:59.0551; stroke-opacity:1; 
stroke-linecap:round; stroke-linejoin:round;">
<path d="M102362 4724
L102362 3937
" />
</g>
<g style="fill:#000000; fill-opacity:0.0; 
stroke:#000000; stroke-width:39.3701; stroke-opacity:1; 
stroke-linecap:round; stroke-linejoin:round;">
</g>
<g style="fill:#000000; fill-opacity:0.0; 
stroke:#000000; stroke-width:59.0551; stroke-opacity:1; 
stroke-linecap:round; stroke-linejoin:round;">
<path d="M14169 4562
L13877 4562
" />
<path d="M14023 4562
L14023 4050
L13974 4123
L13925 4172
L13877 4196
" />
</g>
<g style="fill:#000000; fill-opacity:0.0; 
stroke:#000000; stroke-width:39.3701; stroke-opacity:1; 
stroke-linecap:round; stroke-linejoin:round;">
</g>
<g style="fill:#000000; fill-opacity:0.0; 
stroke:#000000; stroke-width:59.0551; stroke-opacity:1; 
stroke-linecap:round; stroke-linejoin:round;">
<path d="M33562 4099
L33586 4074
L33635 4050
L33757 4050
L33805 4074
L33830 4099
L33854 4147
L33854 4196
L33830 4269
L33537 4562
L33854 4562
" />
</g>
<g style="fill:#000000; fill-opacity:0.0; 
stroke:#000000; stroke-width:39.3701; stroke-opacity:1; 
stroke-linecap:round; stroke-linejoin:round;">
</g>
<g style="fill:#000000; fill-opacity:0.0; 
stroke:#000000; stroke-width:59.0551; stroke-opacity:1; 
stroke-linecap:round; stroke-linejoin:round;">
<path d="M53222 4050
L53539 4050
L53368 4245
L53442 4245
L53490 4269
L53515 4294
L53539 4342
L53539 4464
L53515 4513
L53490 4537
L53442 4562
L53295 4562
L53247 4537
L53222 4513
" />
</g>
<g style="fill:#000000; fill-opacity:0.0; 
stroke:#000000; stroke-width:39.3701; stroke-opacity:1; 
stroke-linecap:round; stroke-linejoin:round;">
</g>
<g style="fill:#000000; fill-opacity:0.0; 
stroke:#000000; stroke-width:59.0551; stroke-opacity:1; 
stroke-linecap:round; stroke-linejoin:round;">
<path d="M73175 4221
L73175 4562
" />
<path d="M73053 4026
L72932 4391
L73248 4391
" />
</g>
<g style="fill:#000000; fill-opacity:0.0; 
stroke:#000000; stroke-width:39.3701; stroke-opacity:1; 
stroke-linecap:round; stroke-linejoin:round;">
</g>
<g style="fill:#000000; fill-opacity:0.0; 
stroke:#000000; stroke-width:59.0551; stroke-opacity:1; 
stroke-linecap:round; stroke-linejoin:round;">
<path d="M92885 4050
L92641 4050
L92617 4294
L92641 4269
L92690 4245
L92812 4245
L92860 4269
L92885 4294
L92909 4342
L92909 4464
L92885 4513
L92860 4537
L92812 4562
L92690 4562
L92641 4537
L92617 4513
" />
</g>
<g style="fill:#000000; fill-opacity:0.0; 
stroke:#000000; stroke-width:39.3701; stroke-opacity:1; 
stroke-linecap:round; stroke-linejoin:round;">
</g>
<g style="fill:#000000; fill-opacity:0.0; 
stroke:#000000; stroke-width:59.0551; stroke-opacity:1; 
stroke-linecap:round; stroke-linejoin:round;">
<path d="M112545 4050
L112448 4050
L112399 4074
L112375 4099
L112326 4172
L112302 4269
L112302 4464
L112326 4513
L112350 4537
L112399 4562
L112497 4562
L112545 4537
L112570 4513
L112594 4464
L112594 4342
L112570 4294
L112545 4269
L112497 4245
L112399 4245
L112350 4269
L112326 4294
L112302 4342
" />
</g>
<g style="fill:#000000; fill-opacity:0.0; 
stroke:#000000; stroke-width:39.3701; stroke-opacity:1; 
stroke-linecap:round; stroke-linejoin:round;">
</g>
<g style="fill:#000000; fill-opacity:0.0; 
stroke:#000000; stroke-width:59.0551; stroke-opacity:1; 
stroke-linecap:round; stroke-linejoin:round;">
<path d="M23622 77955
L23622 78742
" />
</g>
<g style="fill:#000000; fill-opacity:0.0; 
stroke:#000000; stroke-width:39.3701; stroke-opacity:1; 
stroke-linecap:round; stroke-linejoin:round;">
</g>
<g style="fill:#000000; fill-opacity:0.0; 
stroke:#000000; stroke-width:59.0551; stroke-opacity:1; 
stroke-linecap:round; stroke-linejoin:round;">
<path d="M43307 77955
L43307 78742
" />
</g>
<g style="fill:#000000; fill-opacity:0.0; 
stroke:#000000; stroke-width:39.3701; stroke-opacity:1; 
stroke-linecap:round; stroke-linejoin:round;">
</g>
<g style="fill:#000000; fill-opacity:0.0; 
stroke:#000000; stroke-width:59.0551; stroke-opacity:1; 
stroke-linecap:round; stroke-linejoin:round;">
<path d="M62992 77955
L62992 78742
" />
</g>
<g style="fill:#000000; fill-opacity:0.0; 
stroke:#000000; stroke-width:39.3701; stroke-opacity:1; 
stroke-linecap:round; stroke-linejoin:round;">
</g>
<g style="fill:#000000; fill-opacity:0.0; 
stroke:#000000; stroke-width:59.0551; stroke-opacity:1; 
stroke-linecap:round; stroke-linejoin:round;">
<path d="M82677 77955
L82677 78742
" />
</g>
<g style="fill:#000000; fill-opacity:0.0; 
stroke:#000000; stroke-width:39.3701; stroke-opacity:1; 
stroke-linecap:round; stroke-linejoin:round;">
</g>
<g style="fill:#000000; fill-opacity:0.0; 
stroke:#000000; stroke-width:59.0551; stroke-opacity:1; 
stroke-linecap:round; stroke-linejoin:round;">
<path d="M102362 77955
L102362 78742
" />
</g>
<g style="fill:#000000; fill-opacity:0.0; 
stroke:#000000; stroke-width:39.3701; stroke-opacity:1; 
stroke-linecap:round; stroke-linejoin:round;">
</g>
<g style="fill:#000000; fill-opacity:0.0; 
stroke:#000000; stroke-width:59.0551; stroke-opacity:1; 
stroke-linecap:round; stroke-linejoin:round;">
<path d="M14169 78580
L13877 78580
" />
<path d="M14023 78580
L14023 78069
L13974 78142
L13925 78190
L13877 78215
" />
</g>
<g style="fill:#000000; fill-opacity:0.0; 
stroke:#000000; stroke-width:39.3701; stroke-opacity:1; 
stroke-linecap:round; stroke-linejoin:round;">
</g>
<g style="fill:#000000; fill-opacity:0.0; 
stroke:#000000; stroke-width:59.0551; stroke-opacity:1; 
stroke-linecap:round; stroke-linejoin:round;">
<path d="M33562 78117
L33586 78093
L33635 78069
L33757 78069
L33805 78093
L33830 78117
L33854 78166
L33854 78215
L33830 78288
L33537 78580
L33854 78580
" />
</g>
<g style="fill:#000000; fill-opacity:0.0; 
stroke:#000000; stroke-width:39.3701; stroke-opacity:1; 
stroke-linecap:round; stroke-linejoin:round;">
</g>
<g style="fill:#000000; fill-opacity:0.0; 
stroke:#000000; stroke-width:59.0551; stroke-opacity:1; 
stroke-linecap:round; stroke-linejoin:round;">
<path d="M53222 78069
L53539 78069
L53368 78263
L53442 78263
L53490 78288
L53515 78312
L53539 78361
L53539 78483
L53515 78532
L53490 78556
L53442 78580
L53295 78580
L53247 78556
L53222 78532
" />
</g>
<g style="fill:#000000; fill-opacity:0.0; 
stroke:#000000; stroke-width:39.3701; stroke-opacity:1; 
stroke-linecap:round; stroke-linejoin:round;">
</g>
<g style="fill:#000000; fill-opacity:0.0; 
stroke:#000000; stroke-width:59.0551; stroke-opacity:1; 
stroke-linecap:round; stroke-linejoin:round;">
<path d="M73175 78239
L73175 78580
" />
<path d="M73053 78044
L72932 78410
L73248 78410
" />
</g>
<g style="fill:#000000; fill-opacity:0.0; 
stroke:#000000; stroke-width:39.3701; stroke-opacity:1; 
stroke-linecap:round; stroke-linejoin:round;">
</g>
<g style="fill:#000000; fill-opacity:0.0; 
stroke:#000000; stroke-width:59.0551; stroke-opacity:1; 
stroke-linecap:round; stroke-linejoin:round;">
<path d="M92885 78069
L92641 78069
L92617 78312
L92641 78288
L92690 78263
L92812 78263
L92860 78288
L92885 78312
L92909 78361
L92909 78483
L92885 78532
L92860 78556
L92812 78580
L92690 78580
L92641 78556
L92617 78532
" />
</g>
<g style="fill:#000000; fill-opacity:0.0; 
stroke:#000000; stroke-width:39.3701; stroke-opacity:1; 
stroke-linecap:round; stroke-linejoin:round;">
</g>
<g style="fill:#000000; fill-opacity:0.0; 
stroke:#000000; stroke-width:59.0551; stroke-opacity:1; 
stroke-linecap:round; stroke-linejoin:round;">
<path d="M112545 78069
L112448 78069
L112399 78093
L112375 78117
L112326 78190
L112302 78288
L112302 78483
L112326 78532
L112350 78556
L112399 78580
L112497 78580
L112545 78556
L112570 78532
L112594 78483
L112594 78361
L112570 78312
L112545 78288
L112497 78263
L112399 78263
L112350 78288
L112326 78312
L112302 78361
" />
</g>
<g style="fill:#000000; fill-opacity:0.0; 
stroke:#000000; stroke-width:39.3701; stroke-opacity:1; 
stroke-linecap:round; stroke-linejoin:round;">
</g>
<g style="fill:#000000; fill-opacity:0.0; 
stroke:#000000; stroke-width:59.0551; stroke-opacity:1; 
stroke-linecap:round; stroke-linejoin:round;">
<path d="M3937 23622
L4724 23622
" />
</g>
<g style="fill:#000000; fill-opacity:0.0; 
stroke:#000000; stroke-width:39.3701; stroke-opacity:1; 
stroke-linecap:round; stroke-linejoin:round;">
</g>
<g style="fill:#000000; fill-opacity:0.0; 
stroke:#000000; stroke-width:59.0551; stroke-opacity:1; 
stroke-linecap:round; stroke-linejoin:round;">
<path d="M3937 43307
L4724 43307
" />
</g>
<g style="fill:#000000; fill-opacity:0.0; 
stroke:#000000; stroke-width:39.3701; stroke-opacity:1; 
stroke-linecap:round; stroke-linejoin:round;">
</g>
<g style="fill:#000000; fill-opacity:0.0; 
stroke:#000000; stroke-width:59.0551; stroke-opacity:1; 
stroke-linecap:round; stroke-linejoin:round;">
<path d="M3937 62992
L4724 62992
" />
</g>
<g style="fill:#000000; fill-opacity:0.0; 
stroke:#000000; stroke-width:39.3701; stroke-opacity:1; 
stroke-linecap:round; stroke-linejoin:round;">
</g>
<g style="fill:#000000; fill-opacity:0.0; 
stroke:#000000; stroke-width:59.0551; stroke-opacity:1; 
stroke-linecap:round; stroke-linejoin:round;">
<path d="M4208 13864
L4452 13864
" />
<path d="M4160 14011
L4330 13499
L4501 14011
" />
</g>
<g style="fill:#000000; fill-opacity:0.0; 
stroke:#000000; stroke-width:39.3701; stroke-opacity:1; 
stroke-linecap:round; stroke-linejoin:round;">
</g>
<g style="fill:#000000; fill-opacity:0.0; 
stroke:#000000; stroke-width:59.0551; stroke-opacity:1; 
stroke-linecap:round; stroke-linejoin:round;">
<path d="M4367 33428
L4440 33452
L4464 33476
L4489 33525
L4489 33598
L4464 33647
L4440 33671
L4391 33696
L4196 33696
L4196 33184
L4367 33184
L4416 33208
L4440 33233
L4464 33281
L4464 33330
L4440 33379
L4416 33403
L4367 33428
L4196 33428
" />
</g>
<g style="fill:#000000; fill-opacity:0.0; 
stroke:#000000; stroke-width:39.3701; stroke-opacity:1; 
stroke-linecap:round; stroke-linejoin:round;">
</g>
<g style="fill:#000000; fill-opacity:0.0; 
stroke:#000000; stroke-width:59.0551; stroke-opacity:1; 
stroke-linecap:round; stroke-linejoin:round;">
<path d="M4489 53332
L4464 53356
L4391 53381
L4342 53381
L4269 53356
L4221 53308
L4196 53259
L4172 53161
L4172 53088
L4196 52991
L4221 52942
L4269 52893
L4342 52869
L4391 52869
L4464 52893
L4489 52918
" />
</g>
<g style="fill:#000000; fill-opacity:0.0; 
stroke:#000000; stroke-width:39.3701; stroke-opacity:1; 
stroke-linecap:round; stroke-linejoin:round;">
</g>
<g style="fill:#000000; fill-opacity:0.0; 
stroke:#000000; stroke-width:59.0551; stroke-opacity:1; 
stroke-linecap:round; stroke-linejoin:round;">
<path d="M4196 73066
L4196 72554
L4318 72554
L4391 72578
L4440 72627
L4464 72676
L4489 72773
L4489 72846
L4464 72944
L4440 72993
L4391 73041
L4318 73066
L4196 73066
" />
</g>
<g style="fill:#000000; fill-opacity:0.0; 
stroke:#000000; stroke-width:39.3701; stroke-opacity:1; 
stroke-linecap:round; stroke-linejoin:round;">
</g>
<g style="fill:#000000; fill-opacity:0.0; 
stroke:#000000; stroke-width:59.0551; stroke-opacity:1; 
stroke-linecap:round; stroke-linejoin:round;">
<path d="M112992 23622
L112205 23622
" />
</g>
<g style="fill:#000000; fill-opacity:0.0; 
stroke:#000000; stroke-width:39.3701; stroke-opacity:1; 
stroke-linecap:round; stroke-linejoin:round;">
</g>
<g style="fill:#000000; fill-opacity:0.0; 
stroke:#000000; stroke-width:59.0551; stroke-opacity:1; 
stroke-linecap:round; stroke-linejoin:round;">
<path d="M112992 43307
L112205 43307
" />
</g>
<g style="fill:#000000; fill-opacity:0.0; 
stroke:#000000; stroke-width:39.3701; stroke-opacity:1; 
stroke-linecap:round; stroke-linejoin:round;">
</g>
<g style="fill:#000000; fill-opacity:0.0; 
stroke:#000000; stroke-width:59.0551; stroke-opacity:1; 
stroke-linecap:round; stroke-linejoin:round;">
<path d="M112992 62992
L112205 62992
" />
</g>
<g style="fill:#000000; fill-opacity:0.0; 
stroke:#000000; stroke-width:39.3701; stroke-opacity:1; 
stroke-linecap:round; stroke-linejoin:round;">
</g>
<g style="fill:#000000; fill-opacity:0.0; 
stroke:#000000; stroke-width:59.0551; stroke-opacity:1; 
stroke-linecap:round; stroke-linejoin:round;">
<path d="M112477 13864
L112721 13864
" />
<path d="M112428 14011
L112599 13499
L112769 14011
" />
</g>
<g style="fill:#000000; fill-opacity:0.0; 
stroke:#000000; stroke-width:39.3701; stroke-opacity:1; 
stroke-linecap:round; stroke-linejoin:round;">
</g>
<g style="fill:#000000; fill-opacity:0.0; 
stroke:#000000; stroke-width:59.0551; stroke-opacity:1; 
stroke-linecap:round; stroke-linejoin:round;">
<path d="M112635 33428
L112708 33452
L112733 33476
L112757 33525
L112757 33598
L112733 33647
L112708 33671
L112660 33696
L112465 33696
L112465 33184
L112635 33184
L112684 33208
L112708 33233
L112733 33281
L112733 33330
L112708 33379
L112684 33403
L112635 33428
L112465 33428
" />
</g>
<g style="fill:#000000; fill-opacity:0.0; 
stroke:#000000; stroke-width:39.3701; stroke-opacity:1; 
stroke-linecap:round; stroke-linejoin:round;">
</g>
<g style="fill:#000000; fill-opacity:0.0; 
stroke:#000000; stroke-width:59.0551; stroke-opacity:1; 
stroke-linecap:round; stroke-linejoin:round;">
<path d="M112757 53332
L112733 53356
L112660 53381
L112611 53381
L112538 53356
L112489 53308
L112465 53259
L112440 53161
L112440 53088
L112465 52991
L112489 52942
L112538 52893
L112611 52869
L112660 52869
L112733 52893
L112757 52918
" />
</g>
<g style="fill:#000000; fill-opacity:0.0; 
stroke:#000000; stroke-width:39.3701; stroke-opacity:1; 
stroke-linecap:round; stroke-linejoin:round;">
</g>
<g style="fill:#000000; fill-opacity:0.0; 
stroke:#000000; stroke-width:59.0551; stroke-opacity:1; 
stroke-linecap:round; stroke-linejoin:round;">
<path d="M112465 73066
L112465 72554
L112587 72554
L112660 72578
L112708 72627
L112733 72676
L112757 72773
L112757 72846
L112733 72944
L112708 72993
L112660 73041
L112587 73066
L112465 73066
" />
</g>
<g style="fill:#000000; fill-opacity:0.0; 
stroke:#000000; stroke-width:39.3701; stroke-opacity:1; 
stroke-linecap:round; stroke-linejoin:round;">
</g>
<g style="fill:#000000; fill-opacity:0.0; 
stroke:#000000; stroke-width:59.0551; stroke-opacity:1; 
stroke-linecap:round; stroke-linejoin:round;">
<path d="M78881 76293
L78881 75703
L79022 75703
L79106 75731
L79162 75787
L79190 75843
L79219 75956
L79219 76040
L79190 76153
L79162 76209
L79106 76265
L79022 76293
L78881 76293
" />
<path d="M79725 76293
L79725 75984
L79697 75928
L79640 75899
L79528 75899
L79472 75928
" />
<path d="M79725 76265
L79669 76293
L79528 76293
L79472 76265
L79444 76209
L79444 76153
L79472 76096
L79528 76068
L79669 76068
L79725 76040
" />
<path d="M79922 75899
L80147 75899
" />
<path d="M80006 75703
L80006 76209
L80034 76265
L80090 76293
L80147 76293
" />
<path d="M80568 76265
L80512 76293
L80400 76293
L80343 76265
L80315 76209
L80315 75984
L80343 75928
L80400 75899
L80512 75899
L80568 75928
L80597 75984
L80597 76040
L80315 76096
" />
<path d="M80850 76237
L80878 76265
L80850 76293
L80822 76265
L80850 76237
L80850 76293
" />
<path d="M80850 75928
L80878 75956
L80850 75984
L80822 75956
L80850 75928
L80850 75984
" />
</g>
<g style="fill:#000000; fill-opacity:0.0; 
stroke:#000000; stroke-width:39.3701; stroke-opacity:1; 
stroke-linecap:round; stroke-linejoin:round;">
</g>
<g style="fill:#000000; fill-opacity:0.0; 
stroke:#000000; stroke-width:59.0551; stroke-opacity:1; 
stroke-linecap:round; stroke-linejoin:round;">
<path d="M69685 76577
L112205 76577
" />
</g>
<g style="fill:#000000; fill-opacity:0.0; 
stroke:#000000; stroke-width:39.3701; stroke-opacity:1; 
stroke-linecap:round; stroke-linejoin:round;">
</g>
<g style="fill:#000000; fill-opacity:0.0; 
stroke:#000000; stroke-width:59.0551; stroke-opacity:1; 
stroke-linecap:round; stroke-linejoin:round;">
<path d="M70220 77395
L70220 76805
" />
<path d="M70557 77395
L70304 77058
" />
<path d="M70557 76805
L70220 77142
" />
<path d="M70810 77395
L70810 77002
" />
<path d="M70810 76805
L70782 76833
L70810 76861
L70838 76833
L70810 76805
L70810 76861
" />
<path d="M71429 77339
L71401 77367
L71316 77395
L71260 77395
L71176 77367
L71120 77311
L71091 77255
L71063 77142
L71063 77058
L71091 76946
L71120 76889
L71176 76833
L71260 76805
L71316 76805
L71401 76833
L71429 76861
" />
<path d="M71935 77395
L71935 77086
L71907 77030
L71851 77002
L71738 77002
L71682 77030
" />
<path d="M71935 77367
L71879 77395
L71738 77395
L71682 77367
L71654 77311
L71654 77255
L71682 77199
L71738 77171
L71879 77171
L71935 77142
" />
<path d="M72469 77395
L72469 76805
" />
<path d="M72469 77367
L72413 77395
L72301 77395
L72244 77367
L72216 77339
L72188 77283
L72188 77114
L72216 77058
L72244 77030
L72301 77002
L72413 77002
L72469 77030
" />
<path d="M73201 77086
L73397 77086
" />
<path d="M73482 77395
L73201 77395
L73201 76805
L73482 76805
" />
<path d="M73735 77339
L73763 77367
L73735 77395
L73707 77367
L73735 77339
L73735 77395
" />
<path d="M74016 77395
L74016 76805
L74157 76805
L74241 76833
L74297 76889
L74325 76946
L74354 77058
L74354 77142
L74325 77255
L74297 77311
L74241 77367
L74157 77395
L74016 77395
" />
<path d="M74607 77339
L74635 77367
L74607 77395
L74579 77367
L74607 77339
L74607 77395
" />
<path d="M74860 77227
L75141 77227
" />
<path d="M74804 77395
L75000 76805
L75197 77395
" />
<path d="M75394 77339
L75422 77367
L75394 77395
L75366 77367
L75394 77339
L75394 77395
" />
<path d="M76575 77395
L76575 76805
" />
<path d="M76631 77171
L76800 77395
" />
<path d="M76800 77002
L76575 77227
" />
<path d="M77053 77395
L77053 77002
" />
<path d="M77053 76805
L77025 76833
L77053 76861
L77081 76833
L77053 76805
L77053 76861
" />
<path d="M77588 77367
L77531 77395
L77419 77395
L77363 77367
L77334 77339
L77306 77283
L77306 77114
L77334 77058
L77363 77030
L77419 77002
L77531 77002
L77588 77030
" />
<path d="M78094 77395
L78094 77086
L78066 77030
L78009 77002
L77897 77002
L77841 77030
" />
<path d="M78094 77367
L78037 77395
L77897 77395
L77841 77367
L77813 77311
L77813 77255
L77841 77199
L77897 77171
L78037 77171
L78094 77142
" />
<path d="M78628 77395
L78628 76805
" />
<path d="M78628 77367
L78572 77395
L78459 77395
L78403 77367
L78375 77339
L78347 77283
L78347 77114
L78375 77058
L78403 77030
L78459 77002
L78572 77002
L78628 77030
" />
<path d="M79528 77620
L79500 77592
L79444 77508
L79415 77452
L79387 77367
L79359 77227
L79359 77114
L79387 76974
L79415 76889
L79444 76833
L79500 76749
L79528 76721
" />
<path d="M79725 76861
L79753 76833
L79809 76805
L79950 76805
L80006 76833
L80034 76861
L80062 76917
L80062 76974
L80034 77058
L79697 77395
L80062 77395
" />
<path d="M80428 76805
L80484 76805
L80540 76833
L80568 76861
L80597 76917
L80625 77030
L80625 77171
L80597 77283
L80568 77339
L80540 77367
L80484 77395
L80428 77395
L80372 77367
L80343 77339
L80315 77283
L80287 77171
L80287 77030
L80315 76917
L80343 76861
L80372 76833
L80428 76805
" />
<path d="M81187 77395
L80850 77395
" />
<path d="M81018 77395
L81018 76805
L80962 76889
L80906 76946
L80850 76974
" />
<path d="M81693 77002
L81693 77395
" />
<path d="M81553 76777
L81412 77199
L81778 77199
" />
<path d="M82003 77171
L82453 77171
" />
<path d="M82846 76805
L82903 76805
L82959 76833
L82987 76861
L83015 76917
L83043 77030
L83043 77171
L83015 77283
L82987 77339
L82959 77367
L82903 77395
L82846 77395
L82790 77367
L82762 77339
L82734 77283
L82706 77171
L82706 77030
L82734 76917
L82762 76861
L82790 76833
L82846 76805
" />
<path d="M83381 77058
L83324 77030
L83296 77002
L83268 76946
L83268 76917
L83296 76861
L83324 76833
L83381 76805
L83493 76805
L83549 76833
L83577 76861
L83606 76917
L83606 76946
L83577 77002
L83549 77030
L83493 77058
L83381 77058
L83324 77086
L83296 77114
L83268 77171
L83268 77283
L83296 77339
L83324 77367
L83381 77395
L83493 77395
L83549 77367
L83577 77339
L83606 77283
L83606 77171
L83577 77114
L83549 77086
L83493 77058
" />
<path d="M83859 77171
L84309 77171
" />
<path d="M84702 76805
L84759 76805
L84815 76833
L84843 76861
L84871 76917
L84899 77030
L84899 77171
L84871 77283
L84843 77339
L84815 77367
L84759 77395
L84702 77395
L84646 77367
L84618 77339
L84590 77283
L84562 77171
L84562 77030
L84590 76917
L84618 76861
L84646 76833
L84702 76805
" />
<path d="M85433 76805
L85152 76805
L85124 77086
L85152 77058
L85208 77030
L85349 77030
L85405 77058
L85433 77086
L85462 77142
L85462 77283
L85433 77339
L85405 77367
L85349 77395
L85208 77395
L85152 77367
L85124 77339
" />
<path d="M86361 77086
L86446 77114
L86474 77142
L86502 77199
L86502 77283
L86474 77339
L86446 77367
L86390 77395
L86165 77395
L86165 76805
L86361 76805
L86418 76833
L86446 76861
L86474 76917
L86474 76974
L86446 77030
L86418 77058
L86361 77086
L86165 77086
" />
<path d="M86699 76805
L87093 76805
L86699 77395
L87093 77395
" />
<path d="M87655 77395
L87458 77114
" />
<path d="M87318 77395
L87318 76805
L87543 76805
L87599 76833
L87627 76861
L87655 76917
L87655 77002
L87627 77058
L87599 77086
L87543 77114
L87318 77114
" />
<path d="M88639 76805
L88358 76805
L88330 77086
L88358 77058
L88414 77030
L88555 77030
L88611 77058
L88639 77086
L88667 77142
L88667 77283
L88639 77339
L88611 77367
L88555 77395
L88414 77395
L88358 77367
L88330 77339
" />
<path d="M89033 76805
L89089 76805
L89145 76833
L89174 76861
L89202 76917
L89230 77030
L89230 77171
L89202 77283
L89174 77339
L89145 77367
L89089 77395
L89033 77395
L88977 77367
L88949 77339
L88921 77283
L88892 77171
L88892 77030
L88921 76917
L88949 76861
L88977 76833
L89033 76805
" />
<path d="M89764 76805
L89483 76805
L89455 77086
L89483 77058
L89539 77030
L89680 77030
L89736 77058
L89764 77086
L89792 77142
L89792 77283
L89764 77339
L89736 77367
L89680 77395
L89539 77395
L89483 77367
L89455 77339
" />
<path d="M90298 77002
L90298 77395
" />
<path d="M90158 76777
L90017 77199
L90383 77199
" />
<path d="M90552 77620
L90580 77592
L90636 77508
L90664 77452
L90692 77367
L90720 77227
L90720 77114
L90692 76974
L90664 76889
L90636 76833
L90580 76749
L90552 76721
" />
<path d="M91001 77171
L91451 77171
" />
<path d="M91733 77002
L91733 77592
" />
<path d="M91733 77030
L91789 77002
L91901 77002
L91958 77030
L91986 77058
L92014 77114
L92014 77283
L91986 77339
L91958 77367
L91901 77395
L91789 77395
L91733 77367
" />
<path d="M92267 77395
L92267 77002
" />
<path d="M92267 77114
L92295 77058
L92323 77030
L92379 77002
L92436 77002
" />
<path d="M92717 77395
L92661 77367
L92633 77339
L92604 77283
L92604 77114
L92633 77058
L92661 77030
L92717 77002
L92801 77002
L92858 77030
L92886 77058
L92914 77114
L92914 77283
L92886 77339
L92858 77367
L92801 77395
L92717 77395
" />
<path d="M93420 77395
L93420 76805
" />
<path d="M93420 77367
L93364 77395
L93251 77395
L93195 77367
L93167 77339
L93139 77283
L93139 77114
L93167 77058
L93195 77030
L93251 77002
L93364 77002
L93420 77030
" />
<path d="M93954 77002
L93954 77395
" />
<path d="M93701 77002
L93701 77311
L93729 77367
L93786 77395
L93870 77395
L93926 77367
L93954 77339
" />
<path d="M94489 77367
L94432 77395
L94320 77395
L94264 77367
L94235 77339
L94207 77283
L94207 77114
L94235 77058
L94264 77030
L94320 77002
L94432 77002
L94489 77030
" />
<path d="M94657 77002
L94882 77002
" />
<path d="M94742 76805
L94742 77311
L94770 77367
L94826 77395
L94882 77395
" />
</g>
<g style="fill:#000000; fill-opacity:0.0; 
stroke:#000000; stroke-width:39.3701; stroke-opacity:1; 
stroke-linecap:round; stroke-linejoin:round;">
</g>
<g style="fill:#000000; fill-opacity:0.0; 
stroke:#000000; stroke-width:59.0551; stroke-opacity:1; 
stroke-linecap:round; stroke-linejoin:round;">
<path d="M69685 75396
L112205 75396
" />
</g>
<g style="fill:#000000; fill-opacity:0.0; 
stroke:#000000; stroke-width:39.3701; stroke-opacity:1; 
stroke-linecap:round; stroke-linejoin:round;">
</g>
<g style="fill:#000000; fill-opacity:0.0; 
stroke:#000000; stroke-width:118.11; stroke-opacity:1; 
stroke-linecap:round; stroke-linejoin:round;">
<path d="M104022 76293
L103825 76012
" />
<path d="M103684 76293
L103684 75703
L103909 75703
L103965 75731
L103994 75759
L104022 75815
L104022 75899
L103994 75956
L103965 75984
L103909 76012
L103684 76012
" />
<path d="M104500 76265
L104444 76293
L104331 76293
L104275 76265
L104247 76209
L104247 75984
L104275 75928
L104331 75899
L104444 75899
L104500 75928
L104528 75984
L104528 76040
L104247 76096
" />
<path d="M104725 75899
L104865 76293
L105006 75899
" />
<path d="M105231 76237
L105259 76265
L105231 76293
L105203 76265
L105231 76237
L105231 76293
" />
<path d="M105231 75928
L105259 75956
L105231 75984
L105203 75956
L105231 75928
L105231 75984
" />
</g>
<g style="fill:#000000; fill-opacity:0.0; 
stroke:#000000; stroke-width:39.3701; stroke-opacity:1; 
stroke-linecap:round; stroke-linejoin:round;">
</g>
<g style="fill:#000000; fill-opacity:0.0; 
stroke:#000000; stroke-width:59.0551; stroke-opacity:1; 
stroke-linecap:round; stroke-linejoin:round;">
<path d="M70192 76265
L70276 76293
L70417 76293
L70473 76265
L70501 76237
L70529 76181
L70529 76124
L70501 76068
L70473 76040
L70417 76012
L70304 75984
L70248 75956
L70220 75928
L70192 75871
L70192 75815
L70220 75759
L70248 75731
L70304 75703
L70445 75703
L70529 75731
" />
<path d="M70782 76293
L70782 75899
" />
<path d="M70782 75703
L70754 75731
L70782 75759
L70810 75731
L70782 75703
L70782 75759
" />
<path d="M71007 75899
L71316 75899
L71007 76293
L71316 76293
" />
<path d="M71766 76265
L71710 76293
L71598 76293
L71541 76265
L71513 76209
L71513 75984
L71541 75928
L71598 75899
L71710 75899
L71766 75928
L71795 75984
L71795 76040
L71513 76096
" />
<path d="M72048 76237
L72076 76265
L72048 76293
L72019 76265
L72048 76237
L72048 76293
" />
<path d="M72048 75928
L72076 75956
L72048 75984
L72019 75956
L72048 75928
L72048 75984
" />
<path d="M72751 76124
L73032 76124
" />
<path d="M72694 76293
L72891 75703
L73088 76293
" />
<path d="M73538 75899
L73538 76293
" />
<path d="M73397 75674
L73257 76096
L73622 76096
" />
</g>
<g style="fill:#000000; fill-opacity:0.0; 
stroke:#000000; stroke-width:39.3701; stroke-opacity:1; 
stroke-linecap:round; stroke-linejoin:round;">
</g>
<g style="fill:#000000; fill-opacity:0.0; 
stroke:#000000; stroke-width:59.0551; stroke-opacity:1; 
stroke-linecap:round; stroke-linejoin:round;">
<path d="M103684 77395
L103684 76805
" />
<path d="M104219 77395
L104219 76805
" />
<path d="M104219 77367
L104162 77395
L104050 77395
L103994 77367
L103965 77339
L103937 77283
L103937 77114
L103965 77058
L103994 77030
L104050 77002
L104162 77002
L104219 77030
" />
<path d="M104500 77339
L104528 77367
L104500 77395
L104472 77367
L104500 77339
L104500 77395
" />
<path d="M104500 77030
L104528 77058
L104500 77086
L104472 77058
L104500 77030
L104500 77086
" />
<path d="M105540 77395
L105203 77395
" />
<path d="M105372 77395
L105372 76805
L105315 76889
L105259 76946
L105203 76974
" />
<path d="M106215 76777
L105709 77536
" />
<path d="M106721 77395
L106384 77395
" />
<path d="M106553 77395
L106553 76805
L106496 76889
L106440 76946
L106384 76974
" />
</g>
<g style="fill:#000000; fill-opacity:0.0; 
stroke:#000000; stroke-width:39.3701; stroke-opacity:1; 
stroke-linecap:round; stroke-linejoin:round;">
</g>
<g style="fill:#000000; fill-opacity:0.0; 
stroke:#000000; stroke-width:59.0551; stroke-opacity:1; 
stroke-linecap:round; stroke-linejoin:round;">
<path d="M69685 73821
L112205 73821
" />
</g>
<g style="fill:#000000; fill-opacity:0.0; 
stroke:#000000; stroke-width:39.3701; stroke-opacity:1; 
stroke-linecap:round; stroke-linejoin:round;">
</g>
<g style="fill:#000000; fill-opacity:0.0; 
stroke:#000000; stroke-width:157.48; stroke-opacity:1; 
stroke-linecap:round; stroke-linejoin:round;">
<path d="M70257 74099
L70707 74099
" />
<path d="M70384 74886
L70482 74099
" />
<path d="M70871 74886
L70937 74361
" />
<path d="M70970 74099
L70927 74136
L70960 74174
L71002 74136
L70970 74099
L70960 74174
" />
<path d="M71199 74361
L71499 74361
" />
<path d="M71345 74099
L71260 74774
L71288 74849
L71359 74886
L71434 74886
" />
<path d="M71809 74886
L71738 74849
L71710 74774
L71795 74099
" />
<path d="M72413 74849
L72334 74886
L72184 74886
L72113 74849
L72085 74774
L72123 74474
L72169 74399
L72249 74361
L72399 74361
L72469 74399
L72498 74474
L72488 74549
L72104 74624
" />
<path d="M72793 74811
L72826 74849
L72783 74886
L72751 74849
L72793 74811
L72783 74886
" />
<path d="M72844 74399
L72877 74436
L72835 74474
L72802 74436
L72844 74399
L72835 74474
" />
</g>
<g style="fill:#000000; fill-opacity:0.0; 
stroke:#000000; stroke-width:39.3701; stroke-opacity:1; 
stroke-linecap:round; stroke-linejoin:round;">
</g>
<g style="fill:#000000; fill-opacity:0.0; 
stroke:#000000; stroke-width:59.0551; stroke-opacity:1; 
stroke-linecap:round; stroke-linejoin:round;">
<path d="M70417 73070
L70220 73070
" />
<path d="M70220 73380
L70220 72789
L70501 72789
" />
<path d="M70726 73380
L70726 72986
" />
<path d="M70726 72789
L70698 72817
L70726 72845
L70754 72817
L70726 72789
L70726 72845
" />
<path d="M71091 73380
L71035 73352
L71007 73295
L71007 72789
" />
<path d="M71541 73352
L71485 73380
L71373 73380
L71316 73352
L71288 73295
L71288 73070
L71316 73014
L71373 72986
L71485 72986
L71541 73014
L71570 73070
L71570 73127
L71288 73183
" />
<path d="M71823 73323
L71851 73352
L71823 73380
L71795 73352
L71823 73323
L71823 73380
" />
<path d="M71823 73014
L71851 73042
L71823 73070
L71795 73042
L71823 73014
L71823 73070
" />
<path d="M72554 73380
L72554 72789
L72779 72789
L72835 72817
L72863 72845
L72891 72902
L72891 72986
L72863 73042
L72835 73070
L72779 73099
L72554 73099
" />
<path d="M73229 73380
L73172 73352
L73144 73323
L73116 73267
L73116 73099
L73144 73042
L73172 73014
L73229 72986
L73313 72986
L73369 73014
L73397 73042
L73426 73099
L73426 73267
L73397 73323
L73369 73352
L73313 73380
L73229 73380
" />
<path d="M73679 73070
L73876 73070
" />
<path d="M73960 73380
L73679 73380
L73679 72789
L73960 72789
" />
<path d="M74494 73380
L74213 73380
L74213 72789
" />
<path d="M74972 73380
L74691 73380
L74691 72789
" />
<path d="M75169 73380
L75169 72986
" />
<path d="M75169 72789
L75141 72817
L75169 72845
L75197 72817
L75169 72789
L75169 72845
" />
<path d="M75310 73436
L75760 73436
" />
<path d="M75900 73380
L75900 72789
L76125 72789
L76181 72817
L76210 72845
L76238 72902
L76238 72986
L76210 73042
L76181 73070
L76125 73099
L75900 73099
" />
<path d="M76491 73380
L76491 72789
" />
<path d="M76772 73323
L76800 73352
L76772 73380
L76744 73352
L76772 73323
L76772 73380
" />
<path d="M77053 73380
L77053 72789
" />
<path d="M77109 73155
L77278 73380
" />
<path d="M77278 72986
L77053 73211
" />
<path d="M77531 73380
L77531 72986
" />
<path d="M77531 72789
L77503 72817
L77531 72845
L77559 72817
L77531 72789
L77531 72845
" />
<path d="M78066 73352
L78009 73380
L77897 73380
L77841 73352
L77813 73323
L77784 73267
L77784 73099
L77813 73042
L77841 73014
L77897 72986
L78009 72986
L78066 73014
" />
<path d="M78572 73380
L78572 73070
L78544 73014
L78487 72986
L78375 72986
L78319 73014
" />
<path d="M78572 73352
L78516 73380
L78375 73380
L78319 73352
L78291 73295
L78291 73239
L78319 73183
L78375 73155
L78516 73155
L78572 73127
" />
<path d="M79106 73380
L79106 72789
" />
<path d="M79106 73352
L79050 73380
L78937 73380
L78881 73352
L78853 73323
L78825 73267
L78825 73099
L78853 73042
L78881 73014
L78937 72986
L79050 72986
L79106 73014
" />
<path d="M79247 73436
L79697 73436
" />
<path d="M79837 72986
L79837 73577
" />
<path d="M79837 73014
L79894 72986
L80006 72986
L80062 73014
L80090 73042
L80118 73099
L80118 73267
L80090 73323
L80062 73352
L80006 73380
L79894 73380
L79837 73352
" />
<path d="M80625 73352
L80568 73380
L80456 73380
L80400 73352
L80372 73323
L80343 73267
L80343 73099
L80372 73042
L80400 73014
L80456 72986
L80568 72986
L80625 73014
" />
<path d="M80878 73380
L80878 72789
" />
<path d="M80878 73014
L80934 72986
L81046 72986
L81103 73014
L81131 73042
L81159 73099
L81159 73267
L81131 73323
L81103 73352
L81046 73380
L80934 73380
L80878 73352
" />
</g>
<g style="fill:#000000; fill-opacity:0.0; 
stroke:#000000; stroke-width:39.3701; stroke-opacity:1; 
stroke-linecap:round; stroke-linejoin:round;">
</g>
<g style="fill:#000000; fill-opacity:0.0; 
stroke:#000000; stroke-width:59.0551; stroke-opacity:1; 
stroke-linecap:round; stroke-linejoin:round;">
<path d="M69685 71459
L112205 71459
" />
</g>
<g style="fill:#000000; fill-opacity:0.0; 
stroke:#000000; stroke-width:39.3701; stroke-opacity:1; 
stroke-linecap:round; stroke-linejoin:round;">
</g>
<g style="fill:#000000; fill-opacity:0.0; 
stroke:#000000; stroke-width:59.0551; stroke-opacity:1; 
stroke-linecap:round; stroke-linejoin:round;">
<path d="M70192 72289
L70276 72317
L70417 72317
L70473 72289
L70501 72260
L70529 72204
L70529 72148
L70501 72092
L70473 72064
L70417 72036
L70304 72007
L70248 71979
L70220 71951
L70192 71895
L70192 71839
L70220 71782
L70248 71754
L70304 71726
L70445 71726
L70529 71754
" />
<path d="M70782 72317
L70782 71726
" />
<path d="M71035 72317
L71035 72007
L71007 71951
L70951 71923
L70867 71923
L70810 71951
L70782 71979
" />
<path d="M71541 72289
L71485 72317
L71373 72317
L71316 72289
L71288 72232
L71288 72007
L71316 71951
L71373 71923
L71485 71923
L71541 71951
L71570 72007
L71570 72064
L71288 72120
" />
<path d="M72048 72289
L71991 72317
L71879 72317
L71823 72289
L71795 72232
L71795 72007
L71823 71951
L71879 71923
L71991 71923
L72048 71951
L72076 72007
L72076 72064
L71795 72120
" />
<path d="M72244 71923
L72469 71923
" />
<path d="M72329 71726
L72329 72232
L72357 72289
L72413 72317
L72469 72317
" />
<path d="M72666 72260
L72694 72289
L72666 72317
L72638 72289
L72666 72260
L72666 72317
" />
<path d="M72666 71951
L72694 71979
L72666 72007
L72638 71979
L72666 71951
L72666 72007
" />
</g>
<g style="fill:#000000; fill-opacity:0.0; 
stroke:#000000; stroke-width:39.3701; stroke-opacity:1; 
stroke-linecap:round; stroke-linejoin:round;">
</g>
<g style="fill:#000000; fill-opacity:0.0; 
stroke:#000000; stroke-width:59.0551; stroke-opacity:1; 
stroke-linecap:round; stroke-linejoin:round;">
<path d="M77559 75396
L77559 76577
" />
</g>
<g style="fill:#000000; fill-opacity:0.0; 
stroke:#000000; stroke-width:39.3701; stroke-opacity:1; 
stroke-linecap:round; stroke-linejoin:round;">
</g>
<g style="fill:#000000; fill-opacity:0.0; 
stroke:#000000; stroke-width:59.0551; stroke-opacity:1; 
stroke-linecap:round; stroke-linejoin:round;">
<path d="M102756 75396
L102756 77955
" />
</g>
<g style="fill:#C2C2C2; fill-opacity:0.0; 
stroke:#C2C2C2; stroke-width:78.7402; stroke-opacity:1; 
stroke-linecap:round; stroke-linejoin:round;">
<path d="M33661 25590
L29330 25590
" />
</g>
<g style="fill:#C2C2C2; fill-opacity:0.0; 
stroke:#C2C2C2; stroke-width:118.11; stroke-opacity:1; 
stroke-linecap:round; stroke-linejoin:round;">
<path d="M18419 10421
L18447 10393
L18503 10365
L18644 10365
L18700 10393
L18728 10421
L18757 10478
L18757 10534
L18728 10618
L18391 10956
L18757 10956
" />
<path d="M19038 10956
L19150 10956
L19206 10928
L19235 10899
L19291 10815
L19319 10703
L19319 10478
L19291 10421
L19263 10393
L19206 10365
L19094 10365
L19038 10393
L19010 10421
L18982 10478
L18982 10618
L19010 10674
L19038 10703
L19094 10731
L19206 10731
L19263 10703
L19291 10674
L19319 10618
" />
<path d="M19572 10899
L19600 10928
L19572 10956
L19544 10928
L19572 10899
L19572 10956
" />
<path d="M19966 10365
L20022 10365
L20078 10393
L20106 10421
L20134 10478
L20163 10590
L20163 10731
L20134 10843
L20106 10899
L20078 10928
L20022 10956
L19966 10956
L19910 10928
L19881 10899
L19853 10843
L19825 10731
L19825 10590
L19853 10478
L19881 10421
L19910 10393
L19966 10365
" />
<path d="M20528 10365
L20584 10365
L20641 10393
L20669 10421
L20697 10478
L20725 10590
L20725 10731
L20697 10843
L20669 10899
L20641 10928
L20584 10956
L20528 10956
L20472 10928
L20444 10899
L20416 10843
L20388 10731
L20388 10590
L20416 10478
L20444 10421
L20472 10393
L20528 10365
" />
<path d="M21091 10365
L21147 10365
L21203 10393
L21231 10421
L21259 10478
L21287 10590
L21287 10731
L21259 10843
L21231 10899
L21203 10928
L21147 10956
L21091 10956
L21034 10928
L21006 10899
L20978 10843
L20950 10731
L20950 10590
L20978 10478
L21006 10421
L21034 10393
L21091 10365
" />
<path d="M21991 10956
L21991 10562
" />
<path d="M21991 10618
L22019 10590
L22075 10562
L22159 10562
L22215 10590
L22244 10646
L22244 10956
" />
<path d="M22244 10646
L22272 10590
L22328 10562
L22412 10562
L22469 10590
L22497 10646
L22497 10956
" />
<path d="M22778 10956
L22778 10562
" />
<path d="M22778 10618
L22806 10590
L22862 10562
L22947 10562
L23003 10590
L23031 10646
L23031 10956
" />
<path d="M23031 10646
L23059 10590
L23115 10562
L23200 10562
L23256 10590
L23284 10646
L23284 10956
" />
<path d="M15157 11220
L26574 11220
" />
<path d="M15157 13976
L15157 10157
" />
<path d="M26574 13976
L26574 10157
" />
<path d="M26574 11220
L26131 11451
" />
<path d="M26574 11220
L26131 10989
" />
<path d="M15157 11220
L15600 11451
" />
<path d="M15157 11220
L15600 10989
" />
</g>
<g style="fill:#000084; fill-opacity:0.0; 
stroke:#000084; stroke-width:78.7402; stroke-opacity:1; 
stroke-linecap:round; stroke-linejoin:round;">
<path d="M42120 35395
L42120 13348
" />
</g>
<g style="fill:#000084; fill-opacity:0.0; 
stroke:#000084; stroke-width:118.11; stroke-opacity:1; 
stroke-linecap:round; stroke-linejoin:round;">
<path d="M31721 31889
L31777 31946
L31833 32114
L31833 32227
L31777 32395
L31664 32508
L31552 32564
L31327 32620
L31158 32620
L30933 32564
L30821 32508
L30708 32395
L30652 32227
L30652 32114
L30708 31946
L30764 31889
" />
<path d="M31833 30877
L31214 30877
L31102 30933
L31046 31046
L31046 31271
L31102 31383
" />
<path d="M31777 30877
L31833 30989
L31833 31271
L31777 31383
L31664 31439
L31552 31439
L31439 31383
L31383 31271
L31383 30989
L31327 30877
" />
<path d="M31833 30314
L31046 30314
" />
<path d="M31158 30314
L31102 30258
L31046 30146
L31046 29977
L31102 29865
L31214 29808
L31833 29808
" />
<path d="M31214 29808
L31102 29752
L31046 29640
L31046 29471
L31102 29358
L31214 29302
L31833 29302
" />
<path d="M31777 28290
L31833 28402
L31833 28627
L31777 28740
L31664 28796
L31214 28796
L31102 28740
L31046 28627
L31046 28402
L31102 28290
L31214 28233
L31327 28233
L31439 28796
" />
<path d="M31833 27727
L31046 27727
" />
<path d="M31271 27727
L31158 27671
L31102 27615
L31046 27502
L31046 27390
" />
<path d="M31833 26490
L31214 26490
L31102 26546
L31046 26659
L31046 26884
L31102 26996
" />
<path d="M31777 26490
L31833 26602
L31833 26884
L31777 26996
L31664 27052
L31552 27052
L31439 26996
L31383 26884
L31383 26602
L31327 26490
" />
<path d="M15691 26124
L14510 26124
L14510 25843
L14566 25674
L14679 25562
L14791 25506
L15016 25449
L15185 25449
L15410 25506
L15523 25562
L15635 25674
L15691 25843
L15691 26124
" />
<path d="M15691 24943
L14904 24943
" />
<path d="M14510 24943
L14566 24999
L14623 24943
L14566 24887
L14510 24943
L14623 24943
" />
<path d="M15635 24437
L15691 24325
L15691 24100
L15635 23987
L15523 23931
L15466 23931
L15354 23987
L15298 24100
L15298 24268
L15241 24381
L15129 24437
L15073 24437
L14960 24381
L14904 24268
L14904 24100
L14960 23987
" />
<path d="M14904 23425
L16085 23425
" />
<path d="M14960 23425
L14904 23312
L14904 23087
L14960 22975
L15016 22919
L15129 22862
L15466 22862
L15579 22919
L15635 22975
L15691 23087
L15691 23312
L15635 23425
" />
<path d="M15691 22187
L15635 22300
L15523 22356
L14510 22356
" />
<path d="M15691 21231
L15073 21231
L14960 21287
L14904 21400
L14904 21625
L14960 21737
" />
<path d="M15635 21231
L15691 21344
L15691 21625
L15635 21737
L15523 21794
L15410 21794
L15298 21737
L15241 21625
L15241 21344
L15185 21231
" />
<path d="M14904 20781
L15691 20500
" />
<path d="M14904 20219
L15691 20500
L15973 20613
L16029 20669
L16085 20781
" />
</g>
<g style="fill:#C2C2C2; fill-opacity:0.0; 
stroke:#C2C2C2; stroke-width:118.11; stroke-opacity:1; 
stroke-linecap:round; stroke-linejoin:round;">
<path d="M49476 21484
L49476 21203
L49195 21175
L49223 21203
L49251 21259
L49251 21400
L49223 21456
L49195 21484
L49139 21512
L48998 21512
L48942 21484
L48914 21456
L48886 21400
L48886 21259
L48914 21203
L48942 21175
" />
<path d="M49476 22019
L49476 21906
L49448 21850
L49420 21822
L49336 21766
L49223 21737
L48998 21737
L48942 21766
L48914 21794
L48886 21850
L48886 21962
L48914 22019
L48942 22047
L48998 22075
L49139 22075
L49195 22047
L49223 22019
L49251 21962
L49251 21850
L49223 21794
L49195 21766
L49139 21737
" />
<path d="M48942 22328
L48914 22356
L48886 22328
L48914 22300
L48942 22328
L48886 22328
" />
<path d="M49476 22722
L49476 22778
L49448 22834
L49420 22862
L49364 22890
L49251 22919
L49111 22919
L48998 22890
L48942 22862
L48914 22834
L48886 22778
L48886 22722
L48914 22665
L48942 22637
L48998 22609
L49111 22581
L49251 22581
L49364 22609
L49420 22637
L49448 22665
L49476 22722
" />
<path d="M49476 23284
L49476 23340
L49448 23397
L49420 23425
L49364 23453
L49251 23481
L49111 23481
L48998 23453
L48942 23425
L48914 23397
L48886 23340
L48886 23284
L48914 23228
L48942 23200
L48998 23172
L49111 23143
L49251 23143
L49364 23172
L49420 23200
L49448 23228
L49476 23284
" />
<path d="M49476 23847
L49476 23903
L49448 23959
L49420 23987
L49364 24015
L49251 24043
L49111 24043
L48998 24015
L48942 23987
L48914 23959
L48886 23903
L48886 23847
L48914 23790
L48942 23762
L48998 23734
L49111 23706
L49251 23706
L49364 23734
L49420 23762
L49448 23790
L49476 23847
" />
<path d="M48886 24746
L49280 24746
" />
<path d="M49223 24746
L49251 24775
L49280 24831
L49280 24915
L49251 24971
L49195 24999
L48886 24999
" />
<path d="M49195 24999
L49251 25028
L49280 25084
L49280 25168
L49251 25224
L49195 25253
L48886 25253
" />
<path d="M48886 25534
L49280 25534
" />
<path d="M49223 25534
L49251 25562
L49280 25618
L49280 25703
L49251 25759
L49195 25787
L48886 25787
" />
<path d="M49195 25787
L49251 25815
L49280 25871
L49280 25956
L49251 26012
L49195 26040
L48886 26040
" />
<path d="M48622 12598
L48622 34645
" />
<path d="M45866 12598
L49685 12598
" />
<path d="M45866 34645
L49685 34645
" />
<path d="M48622 34645
L48391 34202
" />
<path d="M48622 34645
L48852 34202
" />
<path d="M48622 12598
L48391 13041
" />
<path d="M48622 12598
L48852 13041
" />
<path d="M28177 39831
L28121 39803
L28093 39775
L28065 39718
L28065 39690
L28093 39634
L28121 39606
L28177 39578
L28290 39578
L28346 39606
L28374 39634
L28402 39690
L28402 39718
L28374 39775
L28346 39803
L28290 39831
L28177 39831
L28121 39859
L28093 39887
L28065 39943
L28065 40056
L28093 40112
L28121 40140
L28177 40168
L28290 40168
L28346 40140
L28374 40112
L28402 40056
L28402 39943
L28374 39887
L28346 39859
L28290 39831
" />
<path d="M28937 39578
L28655 39578
L28627 39859
L28655 39831
L28712 39803
L28852 39803
L28908 39831
L28937 39859
L28965 39915
L28965 40056
L28937 40112
L28908 40140
L28852 40168
L28712 40168
L28655 40140
L28627 40112
" />
<path d="M29218 40112
L29246 40140
L29218 40168
L29190 40140
L29218 40112
L29218 40168
" />
<path d="M29611 39578
L29668 39578
L29724 39606
L29752 39634
L29780 39690
L29808 39803
L29808 39943
L29780 40056
L29752 40112
L29724 40140
L29668 40168
L29611 40168
L29555 40140
L29527 40112
L29499 40056
L29471 39943
L29471 39803
L29499 39690
L29527 39634
L29555 39606
L29611 39578
" />
<path d="M30174 39578
L30230 39578
L30286 39606
L30314 39634
L30343 39690
L30371 39803
L30371 39943
L30343 40056
L30314 40112
L30286 40140
L30230 40168
L30174 40168
L30118 40140
L30089 40112
L30061 40056
L30033 39943
L30033 39803
L30061 39690
L30089 39634
L30118 39606
L30174 39578
" />
<path d="M30736 39578
L30793 39578
L30849 39606
L30877 39634
L30905 39690
L30933 39803
L30933 39943
L30905 40056
L30877 40112
L30849 40140
L30793 40168
L30736 40168
L30680 40140
L30652 40112
L30624 40056
L30596 39943
L30596 39803
L30624 39690
L30652 39634
L30680 39606
L30736 39578
" />
<path d="M31636 40168
L31636 39775
" />
<path d="M31636 39831
L31664 39803
L31721 39775
L31805 39775
L31861 39803
L31889 39859
L31889 40168
" />
<path d="M31889 39859
L31917 39803
L31974 39775
L32058 39775
L32114 39803
L32142 39859
L32142 40168
" />
<path d="M32424 40168
L32424 39775
" />
<path d="M32424 39831
L32452 39803
L32508 39775
L32592 39775
L32649 39803
L32677 39859
L32677 40168
" />
<path d="M32677 39859
L32705 39803
L32761 39775
L32845 39775
L32902 39803
L32930 39859
L32930 40168
" />
<path d="M13779 39370
L47244 39370
" />
<path d="M13779 31496
L13779 40433
" />
<path d="M47244 31496
L47244 40433
" />
<path d="M47244 39370
L46800 39600
" />
<path d="M47244 39370
L46800 39139
" />
<path d="M13779 39370
L14223 39600
" />
<path d="M13779 39370
L14223 39139
" />
<path d="M12334 25787
L12727 25787
" />
<path d="M12109 25928
L12530 26068
L12530 25703
" />
<path d="M12727 25449
L12727 25337
L12699 25281
L12671 25253
L12587 25196
L12474 25168
L12249 25168
L12193 25196
L12165 25224
L12137 25281
L12137 25393
L12165 25449
L12193 25478
L12249 25506
L12390 25506
L12446 25478
L12474 25449
L12502 25393
L12502 25281
L12474 25224
L12446 25196
L12390 25168
" />
<path d="M12671 24915
L12699 24887
L12727 24915
L12699 24943
L12671 24915
L12727 24915
" />
<path d="M12137 24521
L12137 24465
L12165 24409
L12193 24381
L12249 24353
L12362 24325
L12502 24325
L12615 24353
L12671 24381
L12699 24409
L12727 24465
L12727 24521
L12699 24578
L12671 24606
L12615 24634
L12502 24662
L12362 24662
L12249 24634
L12193 24606
L12165 24578
L12137 24521
" />
<path d="M12137 23959
L12137 23903
L12165 23847
L12193 23818
L12249 23790
L12362 23762
L12502 23762
L12615 23790
L12671 23818
L12699 23847
L12727 23903
L12727 23959
L12699 24015
L12671 24043
L12615 24071
L12502 24100
L12362 24100
L12249 24071
L12193 24043
L12165 24015
L12137 23959
" />
<path d="M12137 23397
L12137 23340
L12165 23284
L12193 23256
L12249 23228
L12362 23200
L12502 23200
L12615 23228
L12671 23256
L12699 23284
L12727 23340
L12727 23397
L12699 23453
L12671 23481
L12615 23509
L12502 23537
L12362 23537
L12249 23509
L12193 23481
L12165 23453
L12137 23397
" />
<path d="M12727 22497
L12334 22497
" />
<path d="M12390 22497
L12362 22469
L12334 22412
L12334 22328
L12362 22272
L12418 22244
L12727 22244
" />
<path d="M12418 22244
L12362 22215
L12334 22159
L12334 22075
L12362 22019
L12418 21991
L12727 21991
" />
<path d="M12727 21709
L12334 21709
" />
<path d="M12390 21709
L12362 21681
L12334 21625
L12334 21541
L12362 21484
L12418 21456
L12727 21456
" />
<path d="M12418 21456
L12362 21428
L12334 21372
L12334 21287
L12362 21231
L12418 21203
L12727 21203
" />
<path d="M12992 33267
L12992 13976
" />
<path d="M15157 33267
L11929 33267
" />
<path d="M15157 13976
L11929 13976
" />
<path d="M12992 13976
L13223 14419
" />
<path d="M12992 13976
L12761 14419
" />
<path d="M12992 33267
L13223 32824
" />
<path d="M12992 33267
L12761 32824
" />
<path d="M24437 36822
L24156 36822
L24128 37103
L24156 37075
L24212 37047
L24353 37047
L24409 37075
L24437 37103
L24465 37159
L24465 37300
L24437 37356
L24409 37384
L24353 37412
L24212 37412
L24156 37384
L24128 37356
" />
<path d="M24803 37075
L24746 37047
L24718 37019
L24690 36962
L24690 36934
L24718 36878
L24746 36850
L24803 36822
L24915 36822
L24971 36850
L25000 36878
L25028 36934
L25028 36962
L25000 37019
L24971 37047
L24915 37075
L24803 37075
L24746 37103
L24718 37131
L24690 37187
L24690 37300
L24718 37356
L24746 37384
L24803 37412
L24915 37412
L24971 37384
L25000 37356
L25028 37300
L25028 37187
L25000 37131
L24971 37103
L24915 37075
" />
<path d="M25281 37356
L25309 37384
L25281 37412
L25253 37384
L25281 37356
L25281 37412
" />
<path d="M25674 36822
L25731 36822
L25787 36850
L25815 36878
L25843 36934
L25871 37047
L25871 37187
L25843 37300
L25815 37356
L25787 37384
L25731 37412
L25674 37412
L25618 37384
L25590 37356
L25562 37300
L25534 37187
L25534 37047
L25562 36934
L25590 36878
L25618 36850
L25674 36822
" />
<path d="M26237 36822
L26293 36822
L26349 36850
L26377 36878
L26406 36934
L26434 37047
L26434 37187
L26406 37300
L26377 37356
L26349 37384
L26293 37412
L26237 37412
L26181 37384
L26152 37356
L26124 37300
L26096 37187
L26096 37047
L26124 36934
L26152 36878
L26181 36850
L26237 36822
" />
<path d="M26799 36822
L26856 36822
L26912 36850
L26940 36878
L26968 36934
L26996 37047
L26996 37187
L26968 37300
L26940 37356
L26912 37384
L26856 37412
L26799 37412
L26743 37384
L26715 37356
L26687 37300
L26659 37187
L26659 37047
L26687 36934
L26715 36878
L26743 36850
L26799 36822
" />
<path d="M27699 37412
L27699 37019
" />
<path d="M27699 37075
L27727 37047
L27784 37019
L27868 37019
L27924 37047
L27952 37103
L27952 37412
" />
<path d="M27952 37103
L27980 37047
L28037 37019
L28121 37019
L28177 37047
L28205 37103
L28205 37412
" />
<path d="M28487 37412
L28487 37019
" />
<path d="M28487 37075
L28515 37047
L28571 37019
L28655 37019
L28712 37047
L28740 37103
L28740 37412
" />
<path d="M28740 37103
L28768 37047
L28824 37019
L28908 37019
L28965 37047
L28993 37103
L28993 37412
" />
<path d="M15157 36614
L37992 36614
" />
<path d="M15157 33267
L15157 37677
" />
<path d="M37992 33267
L37992 37677
" />
<path d="M37992 36614
L37548 36845
" />
<path d="M37992 36614
L37548 36383
" />
<path d="M15157 36614
L15600 36845
" />
<path d="M15157 36614
L15600 36383
" />
</g>
<g style="fill:#C2C200; fill-opacity:0.0; 
stroke:#C2C200; stroke-width:39.3701; stroke-opacity:1; 
stroke-linecap:round; stroke-linejoin:round;">
<path d="M29527 33464
L29527 25590
" />
<path d="M32283 24409
L30708 24409
" />
<path d="M33464 33464
L33464 25590
" />
<path d="M14960 34645
L28346 34645
" />
<path d="M46062 34645
L34645 34645
" />
<path d="M33464.6 33464.6 A1181.1 1181.1 0.0 0 0 34645.7 34645.7 " />
<path d="M28346.5 34645.7 A1181.1 1181.1 0.0 0 0 29527.6 33464.6 " />
<path d="M33464.6 25590.6 A1181.1 1181.1 0.0 0 0 32283.5 24409.4 " />
<path d="M30708.7 24409.4 A1181.1 1181.1 0.0 0 0 29527.6 25590.6 " />
<path d="M17716 27559
L17716 19685
" />
<path d="M16535.4 28740.2 A1181.1 1181.1 0.0 0 0 17716.5 27559.1 " />
<path d="M17716.5 19685 A1181.1 1181.1 0.0 0 0 16535.4 18503.9 " />
<path d="M13779.5 17322.8 A1181.1 1181.1 0.0 0 0 14960.6 18503.9 " />
<path d="M14960.6 28740.2 A1181.1 1181.1 0.0 0 0 13779.5 29921.3 " />
<path d="M14960 28740
L16535 28740
" />
<path d="M14960 18503
L16535 18503
" />
<path d="M13779 17322
L13779 13779
" />
<path d="M13779 33464
L13779 29921
" />
<circle cx="37992.1" cy="33267.7" r="590.551" /> 
<circle cx="37992.1" cy="13976.4" r="590.551" /> 
<circle cx="15157.5" cy="13976.4" r="590.551" /> 
<circle cx="15157.5" cy="33267.7" r="590.551" /> 
<path d="M14960 12598
L46062 12598
" />
<path d="M46063 34645.7 A1181.1 1181.1 0.0 0 0 47244.1 33464.6 " />
<path d="M47244.1 13779.5 A1181.1 1181.1 0.0 0 0 46063 12598.4 " />
<path d="M47244 13779
L47244 33464
" />
<path d="M13779.5 33464.6 A1181.1 1181.1 0.0 0 0 14960.6 34645.7 " />
<path d="M14960.6 12598.4 A1181.1 1181.1 0.0 0 0 13779.5 13779.5 " />
</g>
<g style="fill:#008484; fill-opacity:0.0; 
stroke:#008484; stroke-width:59.0551; stroke-opacity:1; 
stroke-linecap:round; stroke-linejoin:round;">
<path d="M24437 28599
L24437 28412
" />
<path d="M24550 28637
L24156 28505
L24550 28374
" />
<path d="M24175 28037
L24156 28074
L24156 28130
L24175 28187
L24212 28224
L24250 28243
L24325 28262
L24381 28262
L24456 28243
L24493 28224
L24531 28187
L24550 28130
L24550 28093
L24531 28037
L24512 28018
L24381 28018
L24381 28093
" />
<path d="M24550 27830
L24550 27755
L24531 27718
L24512 27699
L24456 27662
L24381 27643
L24231 27643
L24193 27662
L24175 27680
L24156 27718
L24156 27793
L24175 27830
L24193 27849
L24231 27868
L24325 27868
L24362 27849
L24381 27830
L24400 27793
L24400 27718
L24381 27680
L24362 27662
L24325 27643
" />
<path d="M24325 27418
L24306 27455
L24287 27474
L24250 27493
L24231 27493
L24193 27474
L24175 27455
L24156 27418
L24156 27343
L24175 27305
L24193 27287
L24231 27268
L24250 27268
L24287 27287
L24306 27305
L24325 27343
L24325 27418
L24343 27455
L24362 27474
L24400 27493
L24475 27493
L24512 27474
L24531 27455
L24550 27418
L24550 27343
L24531 27305
L24512 27287
L24475 27268
L24400 27268
L24362 27287
L24343 27305
L24325 27343
" />
<path d="M24156 27024
L24156 26987
L24175 26949
L24193 26931
L24231 26912
L24306 26893
L24400 26893
L24475 26912
L24512 26931
L24531 26949
L24550 26987
L24550 27024
L24531 27062
L24512 27080
L24475 27099
L24400 27118
L24306 27118
L24231 27099
L24193 27080
L24175 27062
L24156 27024
" />
<path d="M24156 26649
L24156 26612
L24175 26574
L24193 26556
L24231 26537
L24306 26518
L24400 26518
L24475 26537
L24512 26556
L24531 26574
L24550 26612
L24550 26649
L24531 26687
L24512 26706
L24475 26724
L24400 26743
L24306 26743
L24231 26724
L24193 26706
L24175 26687
L24156 26649
" />
<path d="M22406 28318
L22800 28187
L22406 28055
" />
<path d="M22687 27943
L22687 27755
" />
<path d="M22800 27980
L22406 27849
L22800 27718
" />
<path d="M22800 27399
L22800 27587
L22406 27587
" />
<path d="M22406 27212
L22500 27212
" />
<path d="M22462 27305
L22500 27212
L22462 27118
" />
<path d="M22575 27268
L22500 27212
L22575 27155
" />
<path d="M22406 26912
L22500 26912
" />
<path d="M22462 27005
L22500 26912
L22462 26818
" />
<path d="M22575 26968
L22500 26912
L22575 26856
" />
<path d="M66376 29771
L66432 29789
L66451 29808
L66469 29846
L66469 29902
L66451 29939
L66432 29958
L66394 29977
L66244 29977
L66244 29583
L66376 29583
L66413 29602
L66432 29621
L66451 29658
L66451 29696
L66432 29733
L66413 29752
L66376 29771
L66244 29771
" />
<path d="M66844 29977
L66619 29977
" />
<path d="M66732 29977
L66732 29583
L66694 29639
L66657 29677
L66619 29696
" />
<path d="M41934 22638
L41915 22657
L41859 22676
L41821 22676
L41765 22657
L41728 22619
L41709 22582
L41690 22507
L41690 22451
L41709 22376
L41728 22338
L41765 22301
L41821 22282
L41859 22282
L41915 22301
L41934 22319
" />
<path d="M42309 22676
L42084 22676
" />
<path d="M42196 22676
L42196 22282
L42159 22338
L42121 22376
L42084 22394
" />
<path d="M40865 21180
L40640 21180
" />
<path d="M40753 21180
L40753 20786
L40715 20842
L40678 20880
L40640 20898
" />
<path d="M41109 20786
L41146 20786
L41184 20805
L41203 20823
L41221 20861
L41240 20936
L41240 21030
L41221 21105
L41203 21142
L41184 21161
L41146 21180
L41109 21180
L41071 21161
L41053 21142
L41034 21105
L41015 21030
L41015 20936
L41034 20861
L41053 20823
L41071 20805
L41109 20786
" />
<path d="M41409 20917
L41409 21180
" />
<path d="M41409 20955
L41428 20936
L41465 20917
L41521 20917
L41559 20936
L41578 20973
L41578 21180
" />
<path d="M42271 21180
L42046 21180
" />
<path d="M42159 21180
L42159 20786
L42121 20842
L42084 20880
L42046 20898
" />
<path d="M42515 20786
L42553 20786
L42590 20805
L42609 20823
L42628 20861
L42646 20936
L42646 21030
L42628 21105
L42609 21142
L42590 21161
L42553 21180
L42515 21180
L42478 21161
L42459 21142
L42440 21105
L42421 21030
L42421 20936
L42440 20861
L42459 20823
L42478 20805
L42515 20786
" />
<path d="M42890 20786
L42928 20786
L42965 20805
L42984 20823
L43003 20861
L43021 20936
L43021 21030
L43003 21105
L42984 21142
L42965 21161
L42928 21180
L42890 21180
L42853 21161
L42834 21142
L42815 21105
L42796 21030
L42796 20936
L42815 20861
L42834 20823
L42853 20805
L42890 20786
" />
<path d="M43134 20786
L43265 21180
L43396 20786
" />
<path d="M30446 37994
L30427 38013
L30371 38032
L30333 38032
L30277 38013
L30239 37976
L30221 37938
L30202 37863
L30202 37807
L30221 37732
L30239 37694
L30277 37657
L30333 37638
L30371 37638
L30427 37657
L30446 37676
" />
<path d="M30596 37676
L30614 37657
L30652 37638
L30746 37638
L30783 37657
L30802 37676
L30821 37713
L30821 37751
L30802 37807
L30577 38032
L30821 38032
" />
<path d="M29377 39528
L29152 39528
" />
<path d="M29265 39528
L29265 39134
L29227 39191
L29190 39228
L29152 39247
" />
<path d="M29621 39134
L29658 39134
L29696 39153
L29715 39172
L29733 39209
L29752 39284
L29752 39378
L29733 39453
L29715 39491
L29696 39509
L29658 39528
L29621 39528
L29583 39509
L29565 39491
L29546 39453
L29527 39378
L29527 39284
L29546 39209
L29565 39172
L29583 39153
L29621 39134
" />
<path d="M29921 39266
L29921 39528
" />
<path d="M29921 39303
L29940 39284
L29977 39266
L30033 39266
L30071 39284
L30089 39322
L30089 39528
" />
<path d="M30783 39528
L30558 39528
" />
<path d="M30671 39528
L30671 39134
L30633 39191
L30596 39228
L30558 39247
" />
<path d="M31027 39134
L31064 39134
L31102 39153
L31121 39172
L31139 39209
L31158 39284
L31158 39378
L31139 39453
L31121 39491
L31102 39509
L31064 39528
L31027 39528
L30989 39509
L30971 39491
L30952 39453
L30933 39378
L30933 39284
L30952 39209
L30971 39172
L30989 39153
L31027 39134
" />
<path d="M31402 39134
L31439 39134
L31477 39153
L31496 39172
L31514 39209
L31533 39284
L31533 39378
L31514 39453
L31496 39491
L31477 39509
L31439 39528
L31402 39528
L31364 39509
L31346 39491
L31327 39453
L31308 39378
L31308 39284
L31327 39209
L31346 39172
L31364 39153
L31402 39134
" />
<path d="M31646 39134
L31777 39528
L31908 39134
" />
<path d="M37335 30376
L37317 30395
L37260 30414
L37223 30414
L37167 30395
L37129 30358
L37110 30320
L37092 30245
L37092 30189
L37110 30114
L37129 30076
L37167 30039
L37223 30020
L37260 30020
L37317 30039
L37335 30058
" />
<path d="M37467 30020
L37710 30020
L37579 30170
L37635 30170
L37673 30189
L37692 30208
L37710 30245
L37710 30339
L37692 30376
L37673 30395
L37635 30414
L37523 30414
L37485 30395
L37467 30376
" />
<path d="M36670 28603
L36445 28603
" />
<path d="M36557 28603
L36557 28209
L36520 28265
L36482 28303
L36445 28322
" />
<path d="M36839 28340
L36839 28603
" />
<path d="M36839 28378
L36857 28359
L36895 28340
L36951 28340
L36989 28359
L37007 28397
L37007 28603
" />
<path d="M37701 28603
L37476 28603
" />
<path d="M37589 28603
L37589 28209
L37551 28265
L37514 28303
L37476 28322
" />
<path d="M37870 28603
L37870 28209
" />
<path d="M37907 28453
L38020 28603
" />
<path d="M38020 28340
L37870 28490
" />
<path d="M38132 28209
L38263 28603
L38395 28209
" />
<path d="M30446 37994
L30427 38013
L30371 38032
L30333 38032
L30277 38013
L30239 37976
L30221 37938
L30202 37863
L30202 37807
L30221 37732
L30239 37694
L30277 37657
L30333 37638
L30371 37638
L30427 37657
L30446 37676
" />
<path d="M30783 37769
L30783 38032
" />
<path d="M30689 37619
L30596 37901
L30839 37901
" />
<path d="M29377 39528
L29152 39528
" />
<path d="M29265 39528
L29265 39134
L29227 39191
L29190 39228
L29152 39247
" />
<path d="M29621 39134
L29658 39134
L29696 39153
L29715 39172
L29733 39209
L29752 39284
L29752 39378
L29733 39453
L29715 39491
L29696 39509
L29658 39528
L29621 39528
L29583 39509
L29565 39491
L29546 39453
L29527 39378
L29527 39284
L29546 39209
L29565 39172
L29583 39153
L29621 39134
" />
<path d="M29921 39266
L29921 39528
" />
<path d="M29921 39303
L29940 39284
L29977 39266
L30033 39266
L30071 39284
L30089 39322
L30089 39528
" />
<path d="M30783 39528
L30558 39528
" />
<path d="M30671 39528
L30671 39134
L30633 39191
L30596 39228
L30558 39247
" />
<path d="M31027 39134
L31064 39134
L31102 39153
L31121 39172
L31139 39209
L31158 39284
L31158 39378
L31139 39453
L31121 39491
L31102 39509
L31064 39528
L31027 39528
L30989 39509
L30971 39491
L30952 39453
L30933 39378
L30933 39284
L30952 39209
L30971 39172
L30989 39153
L31027 39134
" />
<path d="M31402 39134
L31439 39134
L31477 39153
L31496 39172
L31514 39209
L31533 39284
L31533 39378
L31514 39453
L31496 39491
L31477 39509
L31439 39528
L31402 39528
L31364 39509
L31346 39491
L31327 39453
L31308 39378
L31308 39284
L31327 39209
L31346 39172
L31364 39153
L31402 39134
" />
<path d="M31646 39134
L31777 39528
L31908 39134
" />
<path d="M30446 37994
L30427 38013
L30371 38032
L30333 38032
L30277 38013
L30239 37976
L30221 37938
L30202 37863
L30202 37807
L30221 37732
L30239 37694
L30277 37657
L30333 37638
L30371 37638
L30427 37657
L30446 37676
" />
<path d="M30802 37638
L30614 37638
L30596 37826
L30614 37807
L30652 37788
L30746 37788
L30783 37807
L30802 37826
L30821 37863
L30821 37957
L30802 37994
L30783 38013
L30746 38032
L30652 38032
L30614 38013
L30596 37994
" />
<path d="M29377 39528
L29152 39528
" />
<path d="M29265 39528
L29265 39134
L29227 39191
L29190 39228
L29152 39247
" />
<path d="M29621 39134
L29658 39134
L29696 39153
L29715 39172
L29733 39209
L29752 39284
L29752 39378
L29733 39453
L29715 39491
L29696 39509
L29658 39528
L29621 39528
L29583 39509
L29565 39491
L29546 39453
L29527 39378
L29527 39284
L29546 39209
L29565 39172
L29583 39153
L29621 39134
" />
<path d="M29921 39266
L29921 39528
" />
<path d="M29921 39303
L29940 39284
L29977 39266
L30033 39266
L30071 39284
L30089 39322
L30089 39528
" />
<path d="M30783 39528
L30558 39528
" />
<path d="M30671 39528
L30671 39134
L30633 39191
L30596 39228
L30558 39247
" />
<path d="M31027 39134
L31064 39134
L31102 39153
L31121 39172
L31139 39209
L31158 39284
L31158 39378
L31139 39453
L31121 39491
L31102 39509
L31064 39528
L31027 39528
L30989 39509
L30971 39491
L30952 39453
L30933 39378
L30933 39284
L30952 39209
L30971 39172
L30989 39153
L31027 39134
" />
<path d="M31402 39134
L31439 39134
L31477 39153
L31496 39172
L31514 39209
L31533 39284
L31533 39378
L31514 39453
L31496 39491
L31477 39509
L31439 39528
L31402 39528
L31364 39509
L31346 39491
L31327 39453
L31308 39378
L31308 39284
L31327 39209
L31346 39172
L31364 39153
L31402 39134
" />
<path d="M31646 39134
L31777 39528
L31908 39134
" />
<path d="M20603 22125
L20584 22144
L20528 22163
L20491 22163
L20434 22144
L20397 22106
L20378 22069
L20359 21994
L20359 21938
L20378 21863
L20397 21825
L20434 21788
L20491 21769
L20528 21769
L20584 21788
L20603 21806
" />
<path d="M20941 21769
L20866 21769
L20828 21788
L20809 21806
L20772 21863
L20753 21938
L20753 22088
L20772 22125
L20791 22144
L20828 22163
L20903 22163
L20941 22144
L20959 22125
L20978 22088
L20978 21994
L20959 21956
L20941 21938
L20903 21919
L20828 21919
L20791 21938
L20772 21956
L20753 21994
" />
<path d="M45778 30346
L46060 30346
L46116 30364
L46153 30402
L46172 30458
L46172 30496
" />
<path d="M46172 29952
L46172 30177
" />
<path d="M46172 30064
L45778 30064
L45835 30102
L45872 30139
L45891 30177
" />
<path d="M44232 30662
L44045 30793
" />
<path d="M44232 30887
L43838 30887
L43838 30737
L43857 30699
L43876 30680
L43913 30662
L43970 30662
L44007 30680
L44026 30699
L44045 30737
L44045 30887
" />
<path d="M43838 30380
L44120 30380
L44176 30399
L44213 30437
L44232 30493
L44232 30530
" />
<path d="M43970 30024
L44232 30024
" />
<path d="M43820 30118
L44101 30212
L44101 29968
" />
<path d="M43838 29630
L43838 29818
L44026 29837
L44007 29818
L43988 29780
L43988 29687
L44007 29649
L44026 29630
L44063 29612
L44157 29612
L44195 29630
L44213 29649
L44232 29687
L44232 29780
L44213 29818
L44195 29837
" />
<path d="M45778 16960
L46060 16960
L46116 16979
L46153 17016
L46172 17072
L46172 17110
" />
<path d="M45816 16791
L45797 16772
L45778 16735
L45778 16641
L45797 16604
L45816 16585
L45853 16566
L45891 16566
L45947 16585
L46172 16810
L46172 16566
" />
<path d="M44232 17276
L44045 17407
" />
<path d="M44232 17501
L43838 17501
L43838 17351
L43857 17313
L43876 17294
L43913 17276
L43970 17276
L44007 17294
L44026 17313
L44045 17351
L44045 17501
" />
<path d="M43838 16994
L44120 16994
L44176 17013
L44213 17051
L44232 17107
L44232 17144
" />
<path d="M43970 16638
L44232 16638
" />
<path d="M43820 16732
L44101 16826
L44101 16582
" />
<path d="M43838 16245
L43838 16432
L44026 16451
L44007 16432
L43988 16395
L43988 16301
L44007 16263
L44026 16245
L44063 16226
L44157 16226
L44195 16245
L44213 16263
L44232 16301
L44232 16395
L44213 16432
L44195 16451
" />
<path d="M26284 12654
L26284 12260
L26434 12260
L26471 12279
L26490 12298
L26509 12335
L26509 12392
L26490 12429
L26471 12448
L26434 12467
L26284 12467
" />
<path d="M26884 12654
L26659 12654
" />
<path d="M26771 12654
L26771 12260
L26734 12317
L26696 12354
L26659 12373
" />
<path d="M43684 21180
L43553 20992
" />
<path d="M43459 21180
L43459 20786
L43609 20786
L43646 20805
L43665 20823
L43684 20861
L43684 20917
L43665 20955
L43646 20973
L43609 20992
L43459 20992
" />
<path d="M44059 21180
L43834 21180
" />
<path d="M43946 21180
L43946 20786
L43909 20842
L43871 20880
L43834 20898
" />
<path d="M43234 22282
L43496 22282
L43328 22676
" />
<path d="M43834 22282
L43646 22282
L43628 22469
L43646 22451
L43684 22432
L43778 22432
L43815 22451
L43834 22469
L43853 22507
L43853 22601
L43834 22638
L43815 22657
L43778 22676
L43684 22676
L43646 22657
L43628 22638
" />
<path d="M44246 22676
L44115 22488
" />
<path d="M44021 22676
L44021 22282
L44171 22282
L44209 22301
L44228 22319
L44246 22357
L44246 22413
L44228 22451
L44209 22469
L44171 22488
L44021 22488
" />
<path d="M43684 22680
L43553 22492
" />
<path d="M43459 22680
L43459 22286
L43609 22286
L43646 22305
L43665 22323
L43684 22361
L43684 22417
L43665 22455
L43646 22473
L43609 22492
L43459 22492
" />
<path d="M43834 22323
L43853 22305
L43890 22286
L43984 22286
L44021 22305
L44040 22323
L44059 22361
L44059 22398
L44040 22455
L43815 22680
L44059 22680
" />
<path d="M43234 23782
L43496 23782
L43328 24176
" />
<path d="M43834 23782
L43646 23782
L43628 23969
L43646 23951
L43684 23932
L43778 23932
L43815 23951
L43834 23969
L43853 24007
L43853 24101
L43834 24138
L43815 24157
L43778 24176
L43684 24176
L43646 24157
L43628 24138
" />
<path d="M44246 24176
L44115 23988
" />
<path d="M44021 24176
L44021 23782
L44171 23782
L44209 23801
L44228 23819
L44246 23857
L44246 23913
L44228 23951
L44209 23969
L44171 23988
L44021 23988
" />
<path d="M43684 23930
L43553 23742
" />
<path d="M43459 23930
L43459 23536
L43609 23536
L43646 23555
L43665 23573
L43684 23611
L43684 23667
L43665 23705
L43646 23723
L43609 23742
L43459 23742
" />
<path d="M43815 23536
L44059 23536
L43928 23686
L43984 23686
L44021 23705
L44040 23723
L44059 23761
L44059 23855
L44040 23892
L44021 23911
L43984 23930
L43871 23930
L43834 23911
L43815 23892
" />
<path d="M43234 25032
L43496 25032
L43328 25426
" />
<path d="M43834 25032
L43646 25032
L43628 25219
L43646 25201
L43684 25182
L43778 25182
L43815 25201
L43834 25219
L43853 25257
L43853 25351
L43834 25388
L43815 25407
L43778 25426
L43684 25426
L43646 25407
L43628 25388
" />
<path d="M44246 25426
L44115 25238
" />
<path d="M44021 25426
L44021 25032
L44171 25032
L44209 25051
L44228 25069
L44246 25107
L44246 25163
L44228 25201
L44209 25219
L44171 25238
L44021 25238
" />
<path d="M43684 25180
L43553 24992
" />
<path d="M43459 25180
L43459 24786
L43609 24786
L43646 24805
L43665 24823
L43684 24861
L43684 24917
L43665 24955
L43646 24973
L43609 24992
L43459 24992
" />
<path d="M44021 24917
L44021 25180
" />
<path d="M43928 24767
L43834 25048
L44078 25048
" />
<path d="M43234 26282
L43496 26282
L43328 26676
" />
<path d="M43834 26282
L43646 26282
L43628 26469
L43646 26451
L43684 26432
L43778 26432
L43815 26451
L43834 26469
L43853 26507
L43853 26601
L43834 26638
L43815 26657
L43778 26676
L43684 26676
L43646 26657
L43628 26638
" />
<path d="M44246 26676
L44115 26488
" />
<path d="M44021 26676
L44021 26282
L44171 26282
L44209 26301
L44228 26319
L44246 26357
L44246 26413
L44228 26451
L44209 26469
L44171 26488
L44021 26488
" />
<path d="M76535 30299
L56535 30299
" />
<path d="M57535 32299
L76535 32299
" />
<path d="M76535 30299
L76535 32299
" />
<path d="M56535 30299
L56535 31299
" />
<path d="M56535 32299
L57535 32299
" />
<path d="M56535 31299
L57535 31299
" />
<path d="M57535 31299
L57535 32299
" />
<path d="M56535 32299
L56535 31299
" />
<path d="M42137 21986
L41862 21986
" />
<path d="M41862 21513
L42137 21513
" />
<path d="M30374 38366
L30649 38366
" />
<path d="M30649 38838
L30374 38838
" />
<path d="M37007 29734
L37795 29734
" />
<path d="M37795 28927
L37007 28927
" />
<path d="M30374 38366
L30649 38366
" />
<path d="M30649 38838
L30374 38838
" />
<path d="M30374 38366
L30649 38366
" />
<path d="M30649 38838
L30374 38838
" />
<path d="M22569 19285
L22569 20085
" />
<path d="M22519 20235
L22519 19085
" />
<path d="M22469 18985
L22469 20385
" />
<path d="M22419 20535
L22419 18835
" />
<path d="M22369 18735
L22369 20635
" />
<path d="M22319 20685
L22319 18685
" />
<circle cx="20669.3" cy="19685" r="1950" /> 
<path d="M22719 21735
L22719 17635
" />
<path d="M22719 17635
L18919 17635
" />
<path d="M18919 17635
L18619 17935
" />
<path d="M18619 17935
L18619 21435
" />
<path d="M18619 21435
L18919 21735
" />
<path d="M18919 21735
L22719 21735
" />
<path d="M18869 19685
L19169 19685
" />
<path d="M19019 19835
L19019 19535
" />
<path d="M47194 33314
L47194 27314
" />
<path d="M47194 27314
L40094 27314
" />
<path d="M40094 27314
L40094 33314
" />
<path d="M40094 33314
L47194 33314
" />
<path d="M47194 19929
L47194 13929
" />
<path d="M47194 13929
L40094 13929
" />
<path d="M40094 13929
L40094 19929
" />
<path d="M40094 19929
L47194 19929
" />
<path d="M36574 12976
L16574 12976
" />
<path d="M17574 14976
L36574 14976
" />
<path d="M36574 12976
L36574 14976
" />
<path d="M16574 12976
L16574 13976
" />
<path d="M16574 14976
L17574 14976
" />
<path d="M16574 13976
L17574 13976
" />
<path d="M17574 13976
L17574 14976
" />
<path d="M16574 14976
L16574 13976
" />
<path d="M43946 22015
L43553 22015
" />
<path d="M43553 21484
L43946 21484
" />
<path d="M43946 23515
L43553 23515
" />
<path d="M43553 22984
L43946 22984
" />
<path d="M43946 24765
L43553 24765
" />
<path d="M43553 24234
L43946 24234
" />
<path d="M43946 26015
L43553 26015
" />
<path d="M43553 25484
L43946 25484
" />
</g>
<g style="fill:#840000; fill-opacity:0.0; 
stroke:#840000; stroke-width:39.3701; stroke-opacity:1; 
stroke-linecap:round; stroke-linejoin:round;">
</g>
<g style="fill:#840000; fill-opacity:1.0; 
stroke:#840000; stroke-width:39.3701; stroke-opacity:1; 
stroke-linecap:round; stroke-linejoin:round;">
<polyline style="fill-rule:evenodd;"
points="26397,22832
27933,22832
27933,23285
26397,23285
26397,22832
" /> 
<polyline style="fill-rule:evenodd;"
points="26397,23832
27933,23832
27933,24285
26397,24285
26397,23832
" /> 
<polyline style="fill-rule:evenodd;"
points="26397,31832
27933,31832
27933,32285
26397,32285
26397,31832
" /> 
<polyline style="fill-rule:evenodd;"
points="26397,30832
27933,30832
27933,31285
26397,31285
26397,30832
" /> 
<polyline style="fill-rule:evenodd;"
points="19311,30832
20846,30832
20846,31285
19311,31285
19311,30832
" /> 
<polyline style="fill-rule:evenodd;"
points="19311,31832
20846,31832
20846,32285
19311,32285
19311,31832
" /> 
<polyline style="fill-rule:evenodd;"
points="19311,23832
20846,23832
20846,24285
19311,24285
19311,23832
" /> 
<polyline style="fill-rule:evenodd;"
points="19311,22832
20846,22832
20846,23285
19311,23285
19311,22832
" /> 
<polyline style="fill-rule:evenodd;"
points="56715,32119
56715,31478
57355,31478
57355,32119
56715,32119
" /> 
</g>
<g style="fill:#840000; fill-opacity:1.0; 
stroke:#840000; stroke-width:680; stroke-opacity:1; 
stroke-linecap:round; stroke-linejoin:round;">
</g>
<g style="fill:#840000; fill-opacity:0.0; 
stroke:#840000; stroke-width:680; stroke-opacity:1; 
stroke-linecap:round; stroke-linejoin:round;">
<path d="M57035 30799
L57035 30799
" />
<path d="M58035 31799
L58035 31799
" />
<path d="M58035 30799
L58035 30799
" />
<path d="M59035 31799
L59035 31799
" />
<path d="M59035 30799
L59035 30799
" />
<path d="M60035 31799
L60035 31799
" />
<path d="M60035 30799
L60035 30799
" />
<path d="M61035 31799
L61035 31799
" />
<path d="M61035 30799
L61035 30799
" />
<path d="M62035 31799
L62035 31799
" />
<path d="M62035 30799
L62035 30799
" />
<path d="M63035 31799
L63035 31799
" />
<path d="M63035 30799
L63035 30799
" />
<path d="M64035 31799
L64035 31799
" />
<path d="M64035 30799
L64035 30799
" />
<path d="M65035 31799
L65035 31799
" />
<path d="M65035 30799
L65035 30799
" />
<path d="M66035 31799
L66035 31799
" />
<path d="M66035 30799
L66035 30799
" />
<path d="M67035 31799
L67035 31799
" />
<path d="M67035 30799
L67035 30799
" />
<path d="M68035 31799
L68035 31799
" />
<path d="M68035 30799
L68035 30799
" />
<path d="M69035 31799
L69035 31799
" />
<path d="M69035 30799
L69035 30799
" />
<path d="M70035 31799
L70035 31799
" />
<path d="M70035 30799
L70035 30799
" />
<path d="M71035 31799
L71035 31799
" />
<path d="M71035 30799
L71035 30799
" />
<path d="M72035 31799
L72035 31799
" />
<path d="M72035 30799
L72035 30799
" />
<path d="M73035 31799
L73035 31799
" />
<path d="M73035 30799
L73035 30799
" />
<path d="M74035 31799
L74035 31799
" />
<path d="M74035 30799
L74035 30799
" />
<path d="M75035 31799
L75035 31799
" />
<path d="M75035 30799
L75035 30799
" />
<path d="M76035 31799
L76035 31799
" />
<path d="M76035 30799
L76035 30799
" />
</g>
<g style="fill:#840000; fill-opacity:0.0; 
stroke:#840000; stroke-width:39.3701; stroke-opacity:1; 
stroke-linecap:round; stroke-linejoin:round;">
</g>
<g style="fill:#840000; fill-opacity:1.0; 
stroke:#840000; stroke-width:39.3701; stroke-opacity:1; 
stroke-linecap:round; stroke-linejoin:round;">
<polyline style="fill-rule:evenodd;"
points="42590,21622
42590,21877
42157,21877
42157,21622
42590,21622
" /> 
<polyline style="fill-rule:evenodd;"
points="41842,21622
41842,21877
41409,21877
41409,21622
41842,21622
" /> 
<polyline style="fill-rule:evenodd;"
points="29921,38730
29921,38474
30354,38474
30354,38730
29921,38730
" /> 
<polyline style="fill-rule:evenodd;"
points="30669,38730
30669,38474
31102,38474
31102,38730
30669,38730
" /> 
<polyline style="fill-rule:evenodd;"
points="38562,29035
38562,29625
37814,29625
37814,29035
38562,29035
" /> 
<polyline style="fill-rule:evenodd;"
points="36988,29035
36988,29625
36240,29625
36240,29035
36988,29035
" /> 
<polyline style="fill-rule:evenodd;"
points="29921,38730
29921,38474
30354,38474
30354,38730
29921,38730
" /> 
<polyline style="fill-rule:evenodd;"
points="30669,38730
30669,38474
31102,38474
31102,38730
30669,38730
" /> 
<polyline style="fill-rule:evenodd;"
points="29921,38730
29921,38474
30354,38474
30354,38730
29921,38730
" /> 
<polyline style="fill-rule:evenodd;"
points="30669,38730
30669,38474
31102,38474
31102,38730
30669,38730
" /> 
<polyline style="fill-rule:evenodd;"
points="19862,19232
19862,20137
18326,20137
18326,19232
19862,19232
" /> 
<polyline style="fill-rule:evenodd;"
points="23012,19232
23012,20137
21476,20137
21476,19232
23012,19232
" /> 
<circle cx="44094.5" cy="27977" r="698.815" /> 
<circle cx="44094.5" cy="32650" r="698.815" /> 
<polyline style="fill-rule:evenodd;"
points="41870,32340
41318,32340
41318,31789
41870,31789
41870,32340
" /> 
<circle cx="40594.5" cy="31565" r="275.815" /> 
<circle cx="41594.5" cy="31065" r="275.815" /> 
<circle cx="40594.5" cy="30565" r="275.815" /> 
<circle cx="41594.5" cy="30065" r="275.815" /> 
<circle cx="40594.5" cy="29565" r="275.815" /> 
<circle cx="41594.5" cy="29065" r="275.815" /> 
<circle cx="40594.5" cy="28565" r="275.815" /> 
<circle cx="44094.5" cy="14591.1" r="698.815" /> 
<circle cx="44094.5" cy="19264.1" r="698.815" /> 
<polyline style="fill-rule:evenodd;"
points="41870,18954
41318,18954
41318,18403
41870,18403
41870,18954
" /> 
<circle cx="40594.5" cy="18179.1" r="275.815" /> 
<circle cx="41594.5" cy="17679.1" r="275.815" /> 
<circle cx="40594.5" cy="17179.1" r="275.815" /> 
<circle cx="41594.5" cy="16679.1" r="275.815" /> 
<circle cx="40594.5" cy="16179.1" r="275.815" /> 
<circle cx="41594.5" cy="15679.1" r="275.815" /> 
<circle cx="40594.5" cy="15179.1" r="275.815" /> 
<polyline style="fill-rule:evenodd;"
points="16754,14796
16754,14156
17395,14156
17395,14796
16754,14796
" /> 
</g>
<g style="fill:#840000; fill-opacity:1.0; 
stroke:#840000; stroke-width:680; stroke-opacity:1; 
stroke-linecap:round; stroke-linejoin:round;">
</g>
<g style="fill:#840000; fill-opacity:0.0; 
stroke:#840000; stroke-width:680; stroke-opacity:1; 
stroke-linecap:round; stroke-linejoin:round;">
<path d="M17074 13476
L17074 13476
" />
<path d="M18074 14476
L18074 14476
" />
<path d="M18074 13476
L18074 13476
" />
<path d="M19074 14476
L19074 14476
" />
<path d="M19074 13476
L19074 13476
" />
<path d="M20074 14476
L20074 14476
" />
<path d="M20074 13476
L20074 13476
" />
<path d="M21074 14476
L21074 14476
" />
<path d="M21074 13476
L21074 13476
" />
<path d="M22074 14476
L22074 14476
" />
<path d="M22074 13476
L22074 13476
" />
<path d="M23074 14476
L23074 14476
" />
<path d="M23074 13476
L23074 13476
" />
<path d="M24074 14476
L24074 14476
" />
<path d="M24074 13476
L24074 13476
" />
<path d="M25074 14476
L25074 14476
" />
<path d="M25074 13476
L25074 13476
" />
<path d="M26074 14476
L26074 14476
" />
<path d="M26074 13476
L26074 13476
" />
<path d="M27074 14476
L27074 14476
" />
<path d="M27074 13476
L27074 13476
" />
<path d="M28074 14476
L28074 14476
" />
<path d="M28074 13476
L28074 13476
" />
<path d="M29074 14476
L29074 14476
" />
<path d="M29074 13476
L29074 13476
" />
<path d="M30074 14476
L30074 14476
" />
<path d="M30074 13476
L30074 13476
" />
<path d="M31074 14476
L31074 14476
" />
<path d="M31074 13476
L31074 13476
" />
<path d="M32074 14476
L32074 14476
" />
<path d="M32074 13476
L32074 13476
" />
<path d="M33074 14476
L33074 14476
" />
<path d="M33074 13476
L33074 13476
" />
<path d="M34074 14476
L34074 14476
" />
<path d="M34074 13476
L34074 13476
" />
<path d="M35074 14476
L35074 14476
" />
<path d="M35074 13476
L35074 13476
" />
<path d="M36074 14476
L36074 14476
" />
<path d="M36074 13476
L36074 13476
" />
</g>
<g style="fill:#840000; fill-opacity:0.0; 
stroke:#840000; stroke-width:39.3701; stroke-opacity:1; 
stroke-linecap:round; stroke-linejoin:round;">
</g>
<g style="fill:#840000; fill-opacity:1.0; 
stroke:#840000; stroke-width:39.3701; stroke-opacity:1; 
stroke-linecap:round; stroke-linejoin:round;">
<polyline style="fill-rule:evenodd;"
points="43100,21907
43100,21592
43533,21592
43533,21907
43100,21907
" /> 
<polyline style="fill-rule:evenodd;"
points="43966,21907
43966,21592
44399,21592
44399,21907
43966,21907
" /> 
<polyline style="fill-rule:evenodd;"
points="43100,23407
43100,23092
43533,23092
43533,23407
43100,23407
" /> 
<polyline style="fill-rule:evenodd;"
points="43966,23407
43966,23092
44399,23092
44399,23407
43966,23407
" /> 
<polyline style="fill-rule:evenodd;"
points="43100,24657
43100,24342
43533,24342
43533,24657
43100,24657
" /> 
<polyline style="fill-rule:evenodd;"
points="43966,24657
43966,24342
44399,24342
44399,24657
43966,24657
" /> 
<polyline style="fill-rule:evenodd;"
points="43100,25907
43100,25592
43533,25592
43533,25907
43100,25907
" /> 
<polyline style="fill-rule:evenodd;"
points="43966,25907
43966,25592
44399,25592
44399,25907
43966,25907
" /> 
</g>
<g style="fill:#FFFFFF; fill-opacity:1.0; 
stroke:#FFFFFF; stroke-width:39.3701; stroke-opacity:1; 
stroke-linecap:round; stroke-linejoin:round;">
<circle cx="57035.4" cy="31799.2" r="180.315" /> 
<circle cx="57035.4" cy="30799.2" r="180.315" /> 
<circle cx="58035.4" cy="31799.2" r="180.315" /> 
<circle cx="58035.4" cy="30799.2" r="180.315" /> 
<circle cx="59035.4" cy="31799.2" r="180.315" /> 
<circle cx="59035.4" cy="30799.2" r="180.315" /> 
<circle cx="60035.4" cy="31799.2" r="180.315" /> 
<circle cx="60035.4" cy="30799.2" r="180.315" /> 
<circle cx="61035.4" cy="31799.2" r="180.315" /> 
<circle cx="61035.4" cy="30799.2" r="180.315" /> 
<circle cx="62035.4" cy="31799.2" r="180.315" /> 
<circle cx="62035.4" cy="30799.2" r="180.315" /> 
<circle cx="63035.4" cy="31799.2" r="180.315" /> 
<circle cx="63035.4" cy="30799.2" r="180.315" /> 
<circle cx="64035.4" cy="31799.2" r="180.315" /> 
<circle cx="64035.4" cy="30799.2" r="180.315" /> 
<circle cx="65035.4" cy="31799.2" r="180.315" /> 
<circle cx="65035.4" cy="30799.2" r="180.315" /> 
<circle cx="66035.4" cy="31799.2" r="180.315" /> 
<circle cx="66035.4" cy="30799.2" r="180.315" /> 
<circle cx="67035.4" cy="31799.2" r="180.315" /> 
<circle cx="67035.4" cy="30799.2" r="180.315" /> 
<circle cx="68035.4" cy="31799.2" r="180.315" /> 
<circle cx="68035.4" cy="30799.2" r="180.315" /> 
<circle cx="69035.4" cy="31799.2" r="180.315" /> 
<circle cx="69035.4" cy="30799.2" r="180.315" /> 
<circle cx="70035.4" cy="31799.2" r="180.315" /> 
<circle cx="70035.4" cy="30799.2" r="180.315" /> 
<circle cx="71035.4" cy="31799.2" r="180.315" /> 
<circle cx="71035.4" cy="30799.2" r="180.315" /> 
<circle cx="72035.4" cy="31799.2" r="180.315" /> 
<circle cx="72035.4" cy="30799.2" r="180.315" /> 
<circle cx="73035.4" cy="31799.2" r="180.315" /> 
<circle cx="73035.4" cy="30799.2" r="180.315" /> 
<circle cx="74035.4" cy="31799.2" r="180.315" /> 
<circle cx="74035.4" cy="30799.2" r="180.315" /> 
<circle cx="75035.4" cy="31799.2" r="180.315" /> 
<circle cx="75035.4" cy="30799.2" r="180.315" /> 
<circle cx="76035.4" cy="31799.2" r="180.315" /> 
<circle cx="76035.4" cy="30799.2" r="180.315" /> 
<circle cx="44094.5" cy="27977" r="620.315" /> 
<circle cx="44094.5" cy="32650" r="620.315" /> 
<circle cx="41594.5" cy="32065" r="157.315" /> 
<circle cx="40594.5" cy="31565" r="157.315" /> 
<circle cx="41594.5" cy="31065" r="157.315" /> 
<circle cx="40594.5" cy="30565" r="157.315" /> 
<circle cx="41594.5" cy="30065" r="157.315" /> 
<circle cx="40594.5" cy="29565" r="157.315" /> 
<circle cx="41594.5" cy="29065" r="157.315" /> 
<circle cx="40594.5" cy="28565" r="157.315" /> 
<circle cx="44094.5" cy="14591.1" r="620.315" /> 
<circle cx="44094.5" cy="19264.1" r="620.315" /> 
<circle cx="41594.5" cy="18679.1" r="157.315" /> 
<circle cx="40594.5" cy="18179.1" r="157.315" /> 
<circle cx="41594.5" cy="17679.1" r="157.315" /> 
<circle cx="40594.5" cy="17179.1" r="157.315" /> 
<circle cx="41594.5" cy="16679.1" r="157.315" /> 
<circle cx="40594.5" cy="16179.1" r="157.315" /> 
<circle cx="41594.5" cy="15679.1" r="157.315" /> 
<circle cx="40594.5" cy="15179.1" r="157.315" /> 
<circle cx="17074.8" cy="14476.4" r="180.315" /> 
<circle cx="17074.8" cy="13476.4" r="180.315" /> 
<circle cx="18074.8" cy="14476.4" r="180.315" /> 
<circle cx="18074.8" cy="13476.4" r="180.315" /> 
<circle cx="19074.8" cy="14476.4" r="180.315" /> 
<circle cx="19074.8" cy="13476.4" r="180.315" /> 
<circle cx="20074.8" cy="14476.4" r="180.315" /> 
<circle cx="20074.8" cy="13476.4" r="180.315" /> 
<circle cx="21074.8" cy="14476.4" r="180.315" /> 
<circle cx="21074.8" cy="13476.4" r="180.315" /> 
<circle cx="22074.8" cy="14476.4" r="180.315" /> 
<circle cx="22074.8" cy="13476.4" r="180.315" /> 
<circle cx="23074.8" cy="14476.4" r="180.315" /> 
<circle cx="23074.8" cy="13476.4" r="180.315" /> 
<circle cx="24074.8" cy="14476.4" r="180.315" /> 
<circle cx="24074.8" cy="13476.4" r="180.315" /> 
<circle cx="25074.8" cy="14476.4" r="180.315" /> 
<circle cx="25074.8" cy="13476.4" r="180.315" /> 
<circle cx="26074.8" cy="14476.4" r="180.315" /> 
<circle cx="26074.8" cy="13476.4" r="180.315" /> 
<circle cx="27074.8" cy="14476.4" r="180.315" /> 
<circle cx="27074.8" cy="13476.4" r="180.315" /> 
<circle cx="28074.8" cy="14476.4" r="180.315" /> 
<circle cx="28074.8" cy="13476.4" r="180.315" /> 
<circle cx="29074.8" cy="14476.4" r="180.315" /> 
<circle cx="29074.8" cy="13476.4" r="180.315" /> 
<circle cx="30074.8" cy="14476.4" r="180.315" /> 
<circle cx="30074.8" cy="13476.4" r="180.315" /> 
<circle cx="31074.8" cy="14476.4" r="180.315" /> 
<circle cx="31074.8" cy="13476.4" r="180.315" /> 
<circle cx="32074.8" cy="14476.4" r="180.315" /> 
<circle cx="32074.8" cy="13476.4" r="180.315" /> 
<circle cx="33074.8" cy="14476.4" r="180.315" /> 
<circle cx="33074.8" cy="13476.4" r="180.315" /> 
<circle cx="34074.8" cy="14476.4" r="180.315" /> 
<circle cx="34074.8" cy="13476.4" r="180.315" /> 
<circle cx="35074.8" cy="14476.4" r="180.315" /> 
<circle cx="35074.8" cy="13476.4" r="180.315" /> 
<circle cx="36074.8" cy="14476.4" r="180.315" /> 
<circle cx="36074.8" cy="13476.4" r="180.315" /> 
</g> 
</svg>
